<svg width="267" height="110" viewBox="0 0 267 110" fill="none" xmlns="http://www.w3.org/2000/svg">
<rect width="267" height="110" rx="55" fill="#FCF081"/>
<path d="M68.166 42.9844H61.7539V43.1758C62.6152 43.4902 63.2168 43.791 63.5586 44.0645C63.9004 44.3379 64.1465 44.8027 64.2969 45.4453C64.4473 46.0879 64.5293 47.127 64.5293 48.5488V56.6426C64.5293 58.543 64.0371 59.9648 63.0527 60.8945C62.0684 61.8242 60.8789 62.2891 59.498 62.2891C58.0215 62.2891 56.8457 61.7559 55.9707 60.6895C55.0957 59.623 54.6582 58.0918 54.6582 56.0957V46.5254C54.6582 45.3633 54.7812 44.6113 55.0273 44.2695C55.2734 43.9277 55.916 43.5586 56.9414 43.1621V42.9707H48.4922V43.1621C49.5449 43.5586 50.1875 43.9277 50.4336 44.2695C50.6797 44.6113 50.8027 45.3496 50.8027 46.4844V56.082C50.8027 57.1621 50.9531 58.1328 51.2539 58.9941C51.5547 59.8555 51.9512 60.5527 52.4434 61.0859C52.9355 61.6191 53.5234 62.0566 54.1934 62.3984C54.8633 62.7402 55.5332 62.9863 56.2168 63.123C56.9004 63.2598 57.6113 63.3281 58.3633 63.3281C60.5645 63.3281 62.2734 62.7402 63.4902 61.5508C64.707 60.3613 65.3223 58.707 65.3223 56.5879V48.5215C65.3223 47.1133 65.4043 46.0879 65.5684 45.4453C65.7324 44.8027 65.9785 44.3379 66.3203 44.0645C66.6621 43.791 67.2637 43.4902 68.125 43.1758L68.166 42.9844ZM68.877 63H77.3262V62.8086C76.3008 62.4121 75.6582 62.043 75.3984 61.7012C75.1387 61.3594 75.0156 60.6074 75.0156 59.4453V46.4844C75.0156 45.3223 75.1387 44.5703 75.3848 44.2285C75.6309 43.8867 76.2734 43.5176 77.2988 43.1211V42.9297H68.8496V43.1211C69.9023 43.5176 70.5449 43.8867 70.791 44.2285C71.0371 44.5703 71.1602 45.3086 71.1602 46.4434V59.4043C71.1602 60.5391 71.0371 61.2773 70.791 61.6191C70.5449 61.9609 69.8887 62.3301 68.8359 62.7266L68.877 63ZM77.8594 66.2812H78.584L86.6777 41.3848H85.9531L77.8594 66.2812ZM107.295 42.9844H100.883V43.1758C101.744 43.4902 102.346 43.791 102.688 44.0645C103.029 44.3379 103.275 44.8027 103.426 45.4453C103.576 46.0879 103.658 47.127 103.658 48.5488V56.6426C103.658 58.543 103.166 59.9648 102.182 60.8945C101.197 61.8242 100.008 62.2891 98.627 62.2891C97.1504 62.2891 95.9746 61.7559 95.0996 60.6895C94.2246 59.623 93.7871 58.0918 93.7871 56.0957V46.5254C93.7871 45.3633 93.9102 44.6113 94.1562 44.2695C94.4023 43.9277 95.0449 43.5586 96.0703 43.1621V42.9707H87.6211V43.1621C88.6738 43.5586 89.3164 43.9277 89.5625 44.2695C89.8086 44.6113 89.9316 45.3496 89.9316 46.4844V56.082C89.9316 57.1621 90.082 58.1328 90.3828 58.9941C90.6836 59.8555 91.0801 60.5527 91.5723 61.0859C92.0645 61.6191 92.6523 62.0566 93.3223 62.3984C93.9922 62.7402 94.6621 62.9863 95.3457 63.123C96.0293 63.2598 96.7402 63.3281 97.4922 63.3281C99.6934 63.3281 101.402 62.7402 102.619 61.5508C103.836 60.3613 104.451 58.707 104.451 56.5879V48.5215C104.451 47.1133 104.533 46.0879 104.697 45.4453C104.861 44.8027 105.107 44.3379 105.449 44.0645C105.791 43.791 106.393 43.4902 107.254 43.1758L107.295 42.9844ZM124.521 60.252L119.121 51.7754L122.949 46.5664C124.207 44.8848 125.492 43.75 126.818 43.1758V42.9844H120.912V43.1758C122.02 43.7363 122.566 44.3516 122.566 45.0215C122.566 45.4453 122.375 45.9375 121.979 46.498L118.697 51.1191L115.43 45.9102C115.129 45.4316 114.979 45.0625 114.979 44.8027C114.979 44.2148 115.635 43.6816 116.934 43.2031V43.0117H108.006V43.2031C108.785 43.5176 109.373 43.8594 109.756 44.2148C110.139 44.5703 110.535 45.0762 110.945 45.7324L115.949 53.6348L111.752 59.3496C110.535 61.0039 109.236 62.166 107.855 62.8223V63.0137H113.844V62.8223C112.682 62.3438 112.107 61.7695 112.107 61.0996C112.107 60.6211 112.354 60.0469 112.832 59.377L116.414 54.3594L120.023 60.1016C120.283 60.5117 120.42 60.8672 120.42 61.168C120.42 61.5098 120.27 61.8105 119.969 62.0566C119.668 62.3027 119.189 62.5762 118.533 62.8633V63.0547H127.488V62.8633C126.709 62.5488 126.121 62.207 125.738 61.8516C125.355 61.4961 124.945 60.9766 124.521 60.3066V60.252ZM142.145 42.9844H134.557V43.1758C135.609 43.5723 136.252 43.9414 136.498 44.2832C136.744 44.625 136.867 45.3633 136.867 46.498V59.459C136.867 60.5938 136.744 61.332 136.498 61.6738C136.252 62.0156 135.596 62.3848 134.543 62.7812V62.9727H143.416C146.479 62.9727 148.912 61.9883 150.73 60.0059C152.549 58.0234 153.451 55.5352 153.451 52.541C153.451 49.6016 152.494 47.2637 150.58 45.541C148.666 43.8184 145.836 42.957 142.104 42.957L142.145 42.9844ZM143.525 62.166C141.625 62.0703 140.668 61.6465 140.668 60.8945V43.7363H141.967C146.875 43.7363 149.322 46.7305 149.322 52.7188C149.322 55.5762 148.803 57.8457 147.777 59.5137C146.752 61.1816 145.33 62.0703 143.512 62.1797L143.525 62.166ZM167.164 58.2695C166.357 59.9785 165.045 60.8398 163.213 60.8398C161.777 60.8398 160.574 60.3613 159.59 59.3906C158.605 58.4199 158.113 56.957 158.113 55.002L158.141 54.6738H167.26V54.332C167.26 54.0859 167.219 53.7852 167.137 53.4297C167.055 53.0742 166.891 52.6367 166.631 52.1309C166.371 51.625 166.057 51.1602 165.674 50.7363C165.291 50.3125 164.758 49.957 164.061 49.6562C163.363 49.3555 162.584 49.2051 161.709 49.2051C159.781 49.2051 158.182 49.8613 156.91 51.1738C155.639 52.4863 154.996 54.1953 154.996 56.2871C154.996 58.3789 155.639 60.0742 156.924 61.3594C158.209 62.6445 159.822 63.2871 161.764 63.2871C162.734 63.2871 163.582 63.123 164.307 62.7812C165.031 62.4395 165.592 61.9883 165.988 61.4141C166.385 60.8398 166.686 60.3203 166.891 59.8418C167.096 59.3633 167.246 58.8848 167.342 58.4062L167.164 58.2695ZM161.135 49.957C161.654 49.957 162.119 50.1211 162.516 50.4355C162.912 50.75 163.213 51.1465 163.418 51.625C163.623 52.1035 163.773 52.541 163.869 52.9375C163.965 53.334 164.02 53.7031 164.033 54.0449L158.127 54.0996C158.277 52.7871 158.605 51.7754 159.125 51.0508C159.645 50.3262 160.301 49.9707 161.107 49.9707L161.135 49.957ZM174.273 63.3691C175.709 63.3691 176.857 63.0137 177.732 62.2891C178.607 61.5645 179.045 60.6074 179.045 59.418C179.045 58.3652 178.703 57.5039 178.02 56.834C177.336 56.1641 176.324 55.5078 174.984 54.8516C174.383 54.5645 173.932 54.332 173.631 54.1543C173.33 53.9766 173.002 53.7578 172.646 53.4844C172.291 53.2109 172.031 52.9238 171.881 52.623C171.73 52.3223 171.648 51.9941 171.648 51.625C171.648 51.0781 171.812 50.6406 172.141 50.2988C172.469 49.957 172.879 49.793 173.357 49.793C174.738 49.8066 176.27 51.0645 177.951 53.5664L178.143 53.5391L177.842 50.0391C176.174 49.4512 174.738 49.1641 173.549 49.1641C172.305 49.1641 171.225 49.4922 170.322 50.1484C169.42 50.8047 168.969 51.748 168.969 52.9785C168.969 53.457 169.051 53.9082 169.229 54.332C169.406 54.7559 169.611 55.1113 169.844 55.3984C170.076 55.6855 170.404 55.9727 170.828 56.2734C171.252 56.5742 171.594 56.793 171.854 56.9434C172.113 57.0938 172.496 57.2988 173.002 57.5449C174.109 58.1055 174.93 58.6113 175.463 59.0625C175.996 59.5137 176.256 60.0879 176.256 60.7852C176.256 61.3457 176.078 61.8105 175.723 62.1797C175.367 62.5488 174.916 62.7266 174.355 62.7266C172.879 62.7129 171.156 61.2773 169.174 58.4199L169.01 58.4473L169.393 62.2344C171.211 62.9863 172.838 63.3555 174.273 63.3555V63.3691ZM183.297 47.209C183.816 47.209 184.268 47.0176 184.664 46.6484C185.061 46.2793 185.252 45.8418 185.252 45.3359C185.252 44.8438 185.061 44.4199 184.664 44.0508C184.268 43.6816 183.816 43.5039 183.297 43.5039C182.777 43.5039 182.326 43.6953 181.93 44.0645C181.533 44.4336 181.342 44.8574 181.342 45.3359C181.342 45.8418 181.533 46.2793 181.93 46.6484C182.326 47.0176 182.777 47.209 183.297 47.209ZM180.07 63H187.193V62.8086C186.414 62.4668 185.908 62.125 185.689 61.7832C185.471 61.4414 185.361 60.7441 185.361 59.6914V49.1367C183.803 49.6289 182.039 49.9434 180.084 50.0938V50.2852C180.863 50.6543 181.369 51.0371 181.602 51.4199C181.834 51.8027 181.957 52.623 181.957 53.8945V59.6914C181.957 60.7441 181.848 61.4414 181.615 61.7832C181.383 62.125 180.863 62.4668 180.057 62.8086L180.07 63ZM197.789 61.0176C197.119 60.8672 195.998 60.6211 194.426 60.2656C192.854 59.9102 192.061 59.7461 192.061 59.7598L191.719 59.623C191.5 59.5137 191.391 59.3223 191.391 59.0625C191.391 58.543 191.814 58.1738 192.676 57.9688C193.1 58.0371 193.551 58.0645 194.016 58.0645C195.793 58.0645 197.201 57.668 198.24 56.875C199.279 56.082 199.799 55.0703 199.799 53.8398C199.799 52.7324 199.402 51.8301 198.596 51.1328C197.789 50.4355 196.777 49.957 195.561 49.6973V49.5879C196.121 49.6836 196.586 49.7246 196.955 49.7246C198.623 49.7246 199.908 49.1777 200.797 48.0977V47.9883L198.076 47.0723C198.008 47.6465 197.652 48.1387 197.023 48.5625C196.395 48.9863 195.438 49.1914 194.166 49.1914H193.715C192.129 49.1914 190.83 49.6016 189.805 50.4082C188.779 51.2148 188.273 52.3086 188.273 53.6758C188.273 54.7422 188.602 55.6309 189.244 56.3418C189.887 57.0527 190.775 57.5586 191.91 57.8457C190.953 58.0918 190.188 58.4609 189.613 58.9395C189.039 59.418 188.752 59.9785 188.752 60.6211C188.766 61.6875 189.613 62.4121 191.309 62.7812C191.418 62.7949 191.486 62.8086 191.527 62.8086C191.541 62.8223 191.568 62.8359 191.609 62.8359C191.377 62.8906 191.131 62.959 190.871 63.0547C190.611 63.1504 190.201 63.3145 189.641 63.5605C189.08 63.8066 188.629 64.1348 188.287 64.5312C187.945 64.9277 187.768 65.3652 187.768 65.8438C187.768 66.5 188.109 67.0605 188.807 67.5254C189.504 67.9902 190.324 68.3184 191.254 68.5098C192.184 68.7012 193.154 68.7969 194.166 68.7969C194.986 68.7969 195.793 68.7285 196.6 68.5781C197.406 68.4277 198.172 68.1953 198.896 67.8809C199.621 67.5664 200.209 67.1289 200.66 66.5547C201.111 65.9805 201.33 65.3242 201.33 64.5723C201.33 63.6562 201.002 62.9043 200.359 62.3164C199.717 61.7285 198.855 61.3047 197.775 61.0449L197.789 61.0176ZM193.66 49.7793C194.535 49.7793 195.246 50.2852 195.793 51.2832C196.34 52.2812 196.613 53.375 196.613 54.5645C196.613 55.5488 196.408 56.2871 196.012 56.7793C195.615 57.2715 195.109 57.5176 194.494 57.5176C193.564 57.5176 192.826 57.0117 192.293 56.0137C191.76 55.0156 191.486 53.9355 191.486 52.7734C191.486 51.7891 191.691 51.0371 192.102 50.5176C192.512 49.998 193.031 49.7383 193.646 49.7383L193.66 49.7793ZM194.508 68.1406C193.291 68.1406 192.279 67.9219 191.473 67.4707C190.666 67.0195 190.27 66.377 190.27 65.543C190.27 64.4902 190.926 63.6289 192.252 62.9727C192.266 62.9727 192.566 63.0273 193.168 63.1367C193.77 63.2461 194.426 63.3691 195.137 63.5059C195.848 63.6426 196.34 63.752 196.6 63.8203C197.242 63.998 197.748 64.2578 198.104 64.6133C198.459 64.9688 198.637 65.3789 198.637 65.8438C198.637 66.5957 198.227 67.1699 197.42 67.5664C196.613 67.9629 195.643 68.1543 194.508 68.1543V68.1406ZM216.014 59.6914V53.2246C216.014 51.8438 215.617 50.832 214.838 50.1758C214.059 49.5195 213.143 49.1914 212.09 49.1914C210.107 49.2051 208.439 50.2305 207.072 52.2812V49.1367C205.377 49.6289 203.654 49.9434 201.891 50.0938V50.2578C202.67 50.6543 203.176 51.0508 203.408 51.4473C203.641 51.8438 203.764 52.6504 203.764 53.8809V59.7051C203.764 60.7578 203.654 61.4551 203.422 61.7969C203.189 62.1387 202.67 62.4805 201.863 62.8223V63.0137H208.986V62.8223C208.207 62.4805 207.701 62.1387 207.482 61.7969C207.264 61.4551 207.154 60.7578 207.154 59.7051V53.1016C207.674 52.4043 208.18 51.8848 208.686 51.5293C209.191 51.1738 209.82 50.9961 210.572 50.9961C211.352 50.9961 211.898 51.3105 212.213 51.9258C212.527 52.541 212.678 53.7578 212.678 55.5762C212.678 55.8633 212.678 56.5742 212.664 57.6953C212.65 58.8164 212.65 59.5 212.65 59.7324C212.637 60.7852 212.514 61.4824 212.295 61.8242C212.076 62.166 211.557 62.5078 210.75 62.8496V63.041H217.859V62.8496C217.08 62.5078 216.574 62.166 216.355 61.8242C216.137 61.4824 216.027 60.7852 216.027 59.7324L216.014 59.6914Z" fill="black"/>
</svg>
