<svg width="315" height="110" viewBox="0 0 315 110" fill="none" xmlns="http://www.w3.org/2000/svg">
<rect width="315" height="110" rx="55" fill="#E4F2F5"/>
<path d="M65.5273 60.3066L58.6914 42.3145C57.8574 42.916 56.7363 43.5039 55.3145 44.0781L56.2031 45.8691L52.0879 57.1758C51.4863 58.8027 50.9668 59.9648 50.5293 60.6621C50.0918 61.3594 49.3672 62.0703 48.3555 62.7949V62.9863H54.2891V62.7949C53.4551 62.4395 52.8672 62.0977 52.5254 61.7832C52.1836 61.4688 52.0195 61.0449 52.0195 60.5254C52.0195 59.9375 52.3477 58.7617 53.0039 56.998L53.3047 56.1504H60.0039L61.207 59.459C61.4805 60.2109 61.6172 60.7305 61.6172 61.0312C61.6172 61.373 61.4668 61.6738 61.166 61.9199C60.8652 62.166 60.3047 62.4668 59.4844 62.8086V63H67.9883V62.8086C67.168 62.4531 66.6211 62.125 66.3477 61.8242C66.0742 61.5234 65.8008 61.0176 65.541 60.3066H65.5273ZM53.7285 54.9609L56.6406 46.8398L59.5801 54.9609H53.7285ZM77.5312 49.1914C75.877 49.1914 74.4551 50.0117 73.2656 51.666L73.2109 51.6387L73.2383 49.1367C71.5566 49.6289 69.834 49.9434 68.0566 50.0938V50.2578C68.8086 50.4629 69.3008 50.6816 69.5469 50.9004C69.793 51.1191 69.916 51.4883 69.916 51.9941V65.2969C69.916 66.3496 69.8066 67.0469 69.5879 67.3887C69.3691 67.7305 68.8633 68.0723 68.084 68.4141V68.6191H75.9316V68.4141C74.8242 68.0723 74.1133 67.7305 73.7988 67.3887C73.4844 67.0469 73.3203 66.3496 73.3203 65.2969V61.6328H73.375C74.5508 62.7266 75.8633 63.2734 77.2988 63.2734C78.8301 63.2734 80.1699 62.6035 81.3047 61.2637C82.4395 59.9238 83.0137 58.1602 83.0137 55.9727C83.0137 53.9355 82.4941 52.2949 81.4551 51.0508C80.416 49.8066 79.1172 49.1914 77.5723 49.1914H77.5312ZM76.875 62.4668C76.0137 62.4668 75.2891 62.0293 74.6875 61.168C74.0859 60.3066 73.6211 59.3086 73.3066 58.1738V52.4863C74.2773 51.1875 75.2344 50.5312 76.1641 50.5312C77.2441 50.5312 78.0645 51.1602 78.625 52.4043C79.1855 53.6484 79.459 55.2344 79.459 57.1621C79.459 58.8164 79.2402 60.1152 78.8027 61.0586C78.3652 62.002 77.709 62.4805 76.8477 62.4805L76.875 62.4668ZM92.8711 49.1914C91.2168 49.1914 89.7949 50.0117 88.6055 51.666L88.5508 51.6387L88.5781 49.1367C86.8965 49.6289 85.1738 49.9434 83.3965 50.0938V50.2578C84.1484 50.4629 84.6406 50.6816 84.8867 50.9004C85.1328 51.1191 85.2559 51.4883 85.2559 51.9941V65.2969C85.2559 66.3496 85.1465 67.0469 84.9277 67.3887C84.709 67.7305 84.2031 68.0723 83.4238 68.4141V68.6191H91.2715V68.4141C90.1641 68.0723 89.4531 67.7305 89.1387 67.3887C88.8242 67.0469 88.6602 66.3496 88.6602 65.2969V61.6328H88.7148C89.8906 62.7266 91.2031 63.2734 92.6387 63.2734C94.1699 63.2734 95.5098 62.6035 96.6445 61.2637C97.7793 59.9238 98.3535 58.1602 98.3535 55.9727C98.3535 53.9355 97.834 52.2949 96.7949 51.0508C95.7559 49.8066 94.457 49.1914 92.9121 49.1914H92.8711ZM92.2148 62.4668C91.3535 62.4668 90.6289 62.0293 90.0273 61.168C89.4258 60.3066 88.9609 59.3086 88.6465 58.1738V52.4863C89.6172 51.1875 90.5742 50.5312 91.5039 50.5312C92.584 50.5312 93.4043 51.1602 93.9648 52.4043C94.5254 53.6484 94.7988 55.2344 94.7988 57.1621C94.7988 58.8164 94.5801 60.1152 94.1426 61.0586C93.7051 62.002 93.0488 62.4805 92.1875 62.4805L92.2148 62.4668ZM113.434 42.9844H105.846V43.1758C106.898 43.5723 107.541 43.9414 107.787 44.2832C108.033 44.625 108.156 45.3633 108.156 46.498V59.459C108.156 60.5938 108.033 61.332 107.787 61.6738C107.541 62.0156 106.885 62.3848 105.832 62.7812V62.9727H114.705C117.768 62.9727 120.201 61.9883 122.02 60.0059C123.838 58.0234 124.74 55.5352 124.74 52.541C124.74 49.6016 123.783 47.2637 121.869 45.541C119.955 43.8184 117.125 42.957 113.393 42.957L113.434 42.9844ZM114.814 62.166C112.914 62.0703 111.957 61.6465 111.957 60.8945V43.7363H113.256C118.164 43.7363 120.611 46.7305 120.611 52.7188C120.611 55.5762 120.092 57.8457 119.066 59.5137C118.041 61.1816 116.619 62.0703 114.801 62.1797L114.814 62.166ZM138.453 58.2695C137.646 59.9785 136.334 60.8398 134.502 60.8398C133.066 60.8398 131.863 60.3613 130.879 59.3906C129.895 58.4199 129.402 56.957 129.402 55.002L129.43 54.6738H138.549V54.332C138.549 54.0859 138.508 53.7852 138.426 53.4297C138.344 53.0742 138.18 52.6367 137.92 52.1309C137.66 51.625 137.346 51.1602 136.963 50.7363C136.58 50.3125 136.047 49.957 135.35 49.6562C134.652 49.3555 133.873 49.2051 132.998 49.2051C131.07 49.2051 129.471 49.8613 128.199 51.1738C126.928 52.4863 126.285 54.1953 126.285 56.2871C126.285 58.3789 126.928 60.0742 128.213 61.3594C129.498 62.6445 131.111 63.2871 133.053 63.2871C134.023 63.2871 134.871 63.123 135.596 62.7812C136.32 62.4395 136.881 61.9883 137.277 61.4141C137.674 60.8398 137.975 60.3203 138.18 59.8418C138.385 59.3633 138.535 58.8848 138.631 58.4062L138.453 58.2695ZM132.424 49.957C132.943 49.957 133.408 50.1211 133.805 50.4355C134.201 50.75 134.502 51.1465 134.707 51.625C134.912 52.1035 135.062 52.541 135.158 52.9375C135.254 53.334 135.309 53.7031 135.322 54.0449L129.416 54.0996C129.566 52.7871 129.895 51.7754 130.414 51.0508C130.934 50.3262 131.59 49.9707 132.396 49.9707L132.424 49.957ZM148.693 49.5332V49.7246C149.295 50.0391 149.719 50.3262 149.965 50.5723C150.211 50.8184 150.334 51.1191 150.334 51.4609C150.334 51.748 150.266 52.0625 150.143 52.4043C150.129 52.4453 150.074 52.5957 149.979 52.8555C149.883 53.1152 149.76 53.457 149.596 53.8672C149.432 54.2773 149.254 54.7559 149.049 55.2891C148.844 55.8223 148.598 56.4512 148.324 57.1621C148.051 57.873 147.764 58.584 147.463 59.2949L144.605 52.4316C144.387 51.8984 144.277 51.5156 144.277 51.2832C144.277 50.9824 144.4 50.7227 144.633 50.5039C144.865 50.2852 145.289 50.0391 145.891 49.7793V49.5879H138.699V49.7793C139.301 50.0938 139.752 50.3945 140.039 50.6816C140.326 50.9688 140.559 51.3379 140.736 51.7891L145.604 63.0957H146.533L150.949 52.541C151.25 51.8438 151.537 51.3242 151.811 50.9824C152.084 50.6406 152.604 50.2441 153.369 49.7793V49.5879L148.693 49.5332ZM165.113 58.2695C164.307 59.9785 162.994 60.8398 161.162 60.8398C159.727 60.8398 158.523 60.3613 157.539 59.3906C156.555 58.4199 156.062 56.957 156.062 55.002L156.09 54.6738H165.209V54.332C165.209 54.0859 165.168 53.7852 165.086 53.4297C165.004 53.0742 164.84 52.6367 164.58 52.1309C164.32 51.625 164.006 51.1602 163.623 50.7363C163.24 50.3125 162.707 49.957 162.01 49.6562C161.312 49.3555 160.533 49.2051 159.658 49.2051C157.73 49.2051 156.131 49.8613 154.859 51.1738C153.588 52.4863 152.945 54.1953 152.945 56.2871C152.945 58.3789 153.588 60.0742 154.873 61.3594C156.158 62.6445 157.771 63.2871 159.713 63.2871C160.684 63.2871 161.531 63.123 162.256 62.7812C162.98 62.4395 163.541 61.9883 163.938 61.4141C164.334 60.8398 164.635 60.3203 164.84 59.8418C165.045 59.3633 165.195 58.8848 165.291 58.4062L165.113 58.2695ZM159.084 49.957C159.604 49.957 160.068 50.1211 160.465 50.4355C160.861 50.75 161.162 51.1465 161.367 51.625C161.572 52.1035 161.723 52.541 161.818 52.9375C161.914 53.334 161.969 53.7031 161.982 54.0449L156.076 54.0996C156.227 52.7871 156.555 51.7754 157.074 51.0508C157.594 50.3262 158.25 49.9707 159.057 49.9707L159.084 49.957ZM166.016 63H173.139V62.8086C172.359 62.4668 171.854 62.125 171.635 61.7832C171.416 61.4414 171.307 60.7441 171.307 59.6914V42.0273C169.748 42.5195 167.984 42.834 166.029 42.9844V43.1758C166.809 43.5449 167.314 43.9277 167.547 44.3105C167.779 44.6934 167.902 45.5137 167.902 46.7852V59.6914C167.902 60.7441 167.793 61.4414 167.561 61.7832C167.328 62.125 166.809 62.4668 166.002 62.8086L166.016 63ZM180.549 63.2734C182.654 63.2734 184.322 62.6035 185.566 61.25C186.811 59.8965 187.426 58.1875 187.426 56.1094C187.426 54.0312 186.797 52.3633 185.553 51.0918C184.309 49.8203 182.682 49.1914 180.672 49.1914C178.553 49.1914 176.871 49.875 175.627 51.2559C174.383 52.6367 173.754 54.3457 173.754 56.3965C173.754 58.4609 174.383 60.1289 175.641 61.3867C176.898 62.6445 178.525 63.2734 180.535 63.2734H180.549ZM181.15 62.6309C180.494 62.6309 179.906 62.3438 179.373 61.7695C178.84 61.1953 178.43 60.4844 178.129 59.623C177.828 58.7617 177.596 57.8867 177.445 56.9844C177.295 56.082 177.213 55.248 177.213 54.4688C177.213 52.9648 177.486 51.8164 178.033 51.0234C178.58 50.2305 179.25 49.834 180.057 49.834C180.713 49.834 181.301 50.1211 181.834 50.6816C182.367 51.2422 182.777 51.9531 183.064 52.8281C183.352 53.7031 183.57 54.5781 183.721 55.4668C183.871 56.3555 183.939 57.1895 183.939 57.9688C183.939 59.5 183.666 60.6621 183.119 61.4414C182.572 62.2207 181.902 62.6172 181.123 62.6172L181.15 62.6309ZM197.352 49.1914C195.697 49.1914 194.275 50.0117 193.086 51.666L193.031 51.6387L193.059 49.1367C191.377 49.6289 189.654 49.9434 187.877 50.0938V50.2578C188.629 50.4629 189.121 50.6816 189.367 50.9004C189.613 51.1191 189.736 51.4883 189.736 51.9941V65.2969C189.736 66.3496 189.627 67.0469 189.408 67.3887C189.189 67.7305 188.684 68.0723 187.904 68.4141V68.6191H195.752V68.4141C194.645 68.0723 193.934 67.7305 193.619 67.3887C193.305 67.0469 193.141 66.3496 193.141 65.2969V61.6328H193.195C194.371 62.7266 195.684 63.2734 197.119 63.2734C198.65 63.2734 199.99 62.6035 201.125 61.2637C202.26 59.9238 202.834 58.1602 202.834 55.9727C202.834 53.9355 202.314 52.2949 201.275 51.0508C200.236 49.8066 198.938 49.1914 197.393 49.1914H197.352ZM196.695 62.4668C195.834 62.4668 195.109 62.0293 194.508 61.168C193.906 60.3066 193.441 59.3086 193.127 58.1738V52.4863C194.098 51.1875 195.055 50.5312 195.984 50.5312C197.064 50.5312 197.885 51.1602 198.445 52.4043C199.006 53.6484 199.279 55.2344 199.279 57.1621C199.279 58.8164 199.061 60.1152 198.623 61.0586C198.186 62.002 197.529 62.4805 196.668 62.4805L196.695 62.4668ZM225.734 59.6914V53.1426C225.734 51.8027 225.338 50.8047 224.559 50.1621C223.779 49.5195 222.877 49.1914 221.852 49.1914C219.951 49.2051 218.406 50.2305 217.217 52.2676C217.039 51.2422 216.588 50.4766 215.85 49.9707C215.111 49.4648 214.305 49.2188 213.43 49.2188C211.529 49.2324 209.984 50.2578 208.795 52.2949V49.1777C207.1 49.6699 205.377 49.9844 203.613 50.1348V50.2988C204.393 50.6953 204.898 51.0918 205.131 51.4883C205.363 51.8848 205.486 52.6914 205.486 53.9219V59.7461C205.486 60.7988 205.377 61.4961 205.145 61.8379C204.912 62.1797 204.393 62.5215 203.586 62.8633V63.0547H210.709V62.8633C209.93 62.5215 209.424 62.1797 209.205 61.8379C208.986 61.4961 208.877 60.7988 208.877 59.7461V53.1699C209.684 51.7891 210.627 51.1055 211.707 51.1055C212.35 51.1055 212.883 51.3516 213.32 51.8301C213.758 52.3086 213.977 53.0195 213.977 53.9629C213.977 56.9844 213.963 58.9121 213.949 59.7324C213.936 60.7988 213.812 61.4961 213.594 61.8379C213.375 62.1797 212.855 62.5215 212.035 62.8633V63.0547H219.117V62.8633C218.338 62.5215 217.832 62.1797 217.613 61.8379C217.395 61.4961 217.285 60.7988 217.285 59.7461V53.1699C218.119 51.7891 219.076 51.1055 220.143 51.1055C220.799 51.1055 221.346 51.3516 221.783 51.8301C222.221 52.3086 222.439 53.0195 222.439 53.9629C222.439 55.1934 222.426 57.1211 222.385 59.7324C222.371 60.7852 222.248 61.4824 222.016 61.8242C221.783 62.166 221.264 62.5078 220.457 62.8496V63.041H227.58V62.8496C226.801 62.5078 226.295 62.166 226.062 61.8242C225.83 61.4824 225.721 60.7852 225.721 59.7324L225.734 59.6914ZM240.281 58.2695C239.475 59.9785 238.162 60.8398 236.33 60.8398C234.895 60.8398 233.691 60.3613 232.707 59.3906C231.723 58.4199 231.23 56.957 231.23 55.002L231.258 54.6738H240.377V54.332C240.377 54.0859 240.336 53.7852 240.254 53.4297C240.172 53.0742 240.008 52.6367 239.748 52.1309C239.488 51.625 239.174 51.1602 238.791 50.7363C238.408 50.3125 237.875 49.957 237.178 49.6562C236.48 49.3555 235.701 49.2051 234.826 49.2051C232.898 49.2051 231.299 49.8613 230.027 51.1738C228.756 52.4863 228.113 54.1953 228.113 56.2871C228.113 58.3789 228.756 60.0742 230.041 61.3594C231.326 62.6445 232.939 63.2871 234.881 63.2871C235.852 63.2871 236.699 63.123 237.424 62.7812C238.148 62.4395 238.709 61.9883 239.105 61.4141C239.502 60.8398 239.803 60.3203 240.008 59.8418C240.213 59.3633 240.363 58.8848 240.459 58.4062L240.281 58.2695ZM234.252 49.957C234.771 49.957 235.236 50.1211 235.633 50.4355C236.029 50.75 236.33 51.1465 236.535 51.625C236.74 52.1035 236.891 52.541 236.986 52.9375C237.082 53.334 237.137 53.7031 237.15 54.0449L231.244 54.0996C231.395 52.7871 231.723 51.7754 232.242 51.0508C232.762 50.3262 233.418 49.9707 234.225 49.9707L234.252 49.957ZM255.443 59.6914V53.2246C255.443 51.8438 255.047 50.832 254.268 50.1758C253.488 49.5195 252.572 49.1914 251.52 49.1914C249.537 49.2051 247.869 50.2305 246.502 52.2812V49.1367C244.807 49.6289 243.084 49.9434 241.32 50.0938V50.2578C242.1 50.6543 242.605 51.0508 242.838 51.4473C243.07 51.8438 243.193 52.6504 243.193 53.8809V59.7051C243.193 60.7578 243.084 61.4551 242.852 61.7969C242.619 62.1387 242.1 62.4805 241.293 62.8223V63.0137H248.416V62.8223C247.637 62.4805 247.131 62.1387 246.912 61.7969C246.693 61.4551 246.584 60.7578 246.584 59.7051V53.1016C247.104 52.4043 247.609 51.8848 248.115 51.5293C248.621 51.1738 249.25 50.9961 250.002 50.9961C250.781 50.9961 251.328 51.3105 251.643 51.9258C251.957 52.541 252.107 53.7578 252.107 55.5762C252.107 55.8633 252.107 56.5742 252.094 57.6953C252.08 58.8164 252.08 59.5 252.08 59.7324C252.066 60.7852 251.943 61.4824 251.725 61.8242C251.506 62.166 250.986 62.5078 250.18 62.8496V63.041H257.289V62.8496C256.51 62.5078 256.004 62.166 255.785 61.8242C255.566 61.4824 255.457 60.7852 255.457 59.7324L255.443 59.6914ZM262.471 63.2461C264.07 63.2461 265.383 62.4395 266.408 60.8125L266.299 60.6758C265.656 61.332 265 61.6602 264.33 61.6602C263.756 61.6602 263.264 61.4551 262.854 61.0312C262.443 60.6074 262.252 59.9102 262.266 58.9395L262.32 50.3125H265.848L265.957 49.5332H262.293V45.8965H261.979C261.309 47.0859 259.832 48.4258 257.549 49.916V50.2988H258.916V59.459C258.916 60.6895 259.258 61.6328 259.941 62.2754C260.625 62.918 261.459 63.2461 262.457 63.2461H262.471Z" fill="black"/>
</svg>
