<svg width="211" height="110" viewBox="0 0 211 110" fill="none" xmlns="http://www.w3.org/2000/svg">
<rect width="211" height="110" rx="55" fill="#E8DFF6"/>
<path d="M59.7305 51.748V51.6934C60.5371 51.543 61.2754 51.3242 61.9453 51.0371C62.6152 50.75 63.2031 50.3125 63.7227 49.7109C64.2422 49.1094 64.502 48.4258 64.502 47.6465C64.502 46.3887 63.9414 45.2949 62.8203 44.3789C61.6992 43.4629 60.0586 42.998 57.9121 42.998H48.5332V43.1895C49.5859 43.5859 50.2285 43.9551 50.4746 44.2969C50.7207 44.6387 50.8438 45.377 50.8438 46.5117V59.4727C50.8438 60.6074 50.7207 61.3457 50.4746 61.6875C50.2285 62.0293 49.5723 62.3984 48.5195 62.7949V62.9863H57.6523C60.0449 62.9863 61.959 62.4531 63.4082 61.4004C64.8574 60.3477 65.582 58.9531 65.582 57.2168C65.582 56.1094 65.2676 55.1523 64.6387 54.332C64.0098 53.5117 63.2852 52.9102 62.4648 52.5273C61.6445 52.1445 60.7422 51.8848 59.7715 51.7344L59.7305 51.748ZM56.9141 43.75C58.0762 43.75 58.9922 44.1191 59.6758 44.8711C60.3594 45.623 60.7012 46.5801 60.7012 47.7422C60.7012 48.959 60.332 49.9434 59.5938 50.6953C58.8555 51.4473 57.9395 51.8164 56.832 51.8164H54.6992V43.7773L56.9141 43.75ZM57.6387 62.207C56.709 62.1934 55.9844 62.0703 55.4648 61.8379C54.9453 61.6055 54.6855 61.3047 54.6855 60.9492V52.6914L57.2422 52.582C58.582 52.5273 59.6348 52.9238 60.3867 53.7578C61.1387 54.5918 61.5215 55.8633 61.5215 57.5586C61.5215 60.5527 60.2227 62.1113 57.625 62.2344L57.6387 62.207ZM67.0859 63H74.6738V62.8086C73.6895 62.4668 73.0605 62.125 72.7871 61.7832C72.5137 61.4414 72.377 60.7441 72.377 59.6914V52.7188C72.8008 51.8301 73.3613 51.3789 74.0586 51.3789C74.8652 51.3789 75.7812 52.0078 76.8066 53.2793H76.998L77.3945 49.5605C77.0254 49.3145 76.5742 49.1914 76.0547 49.1914C75.1113 49.1914 74.3184 49.4785 73.6621 50.0527C73.0059 50.627 72.541 51.2695 72.2812 51.9805H72.1992L72.2812 49.1504C70.6406 49.6426 68.918 49.957 67.0996 50.1074V50.2715C67.9062 50.6133 68.4258 50.9961 68.6445 51.4336C68.8633 51.8711 68.9727 52.6641 68.9727 53.7988V59.7051C68.9727 60.7578 68.8633 61.4551 68.6309 61.7969C68.3984 62.1387 67.8789 62.4805 67.0723 62.8223L67.0859 63ZM89.0703 63.2734C89.877 63.2734 90.5332 63.0137 91.0391 62.4941C91.5449 61.9746 91.9277 61.3457 92.1738 60.6211L91.9551 60.5117C91.5859 61.3184 91.1621 61.7148 90.6836 61.7148C90.2188 61.7148 89.9863 61.4004 89.9863 60.7578L90.1504 53.4844C90.1914 52.2949 89.8359 51.2832 89.084 50.4492C88.332 49.6152 87.1016 49.2051 85.4062 49.2051C83.875 49.2051 82.5898 49.5332 81.5508 50.1895C80.5117 50.8457 79.7461 51.5977 79.2676 52.459L81.7695 54.1133L81.9062 54.0859C82.0566 52.9512 82.3848 51.9531 82.9043 51.0781C83.4238 50.2031 84.1348 49.7656 85.0234 49.7656C85.7207 49.7656 86.2129 49.998 86.5137 50.4629C86.8145 50.9277 86.9512 51.4609 86.9375 52.0625L86.8828 54.0859C84.0117 54.8652 81.8516 55.7402 80.3887 56.6973C78.9258 57.6543 78.2012 58.7754 78.2012 60.0605C78.2012 61.0039 78.5293 61.7695 79.1992 62.3574C79.8691 62.9453 80.7715 63.2461 81.9062 63.2461C83.0273 63.2461 84.0117 62.959 84.873 62.3984C85.7344 61.8379 86.3633 61.1816 86.7734 60.4297H86.8281C86.7871 61.1953 86.9375 61.8652 87.2793 62.4395C87.6211 63.0137 88.2227 63.3008 89.0977 63.3008L89.0703 63.2734ZM83.6699 61.3457C83.0957 61.3457 82.6309 61.1543 82.2891 60.7715C81.9473 60.3887 81.7695 59.8555 81.7695 59.1855C81.7695 58.2559 82.1523 57.4082 82.9316 56.6562C83.7109 55.9043 85.0234 55.2344 86.8691 54.6602L86.7324 59.6641C85.748 60.7852 84.7227 61.3457 83.6562 61.3457H83.6699ZM106.693 59.6914V53.2246C106.693 51.8438 106.297 50.832 105.518 50.1758C104.738 49.5195 103.822 49.1914 102.77 49.1914C100.787 49.2051 99.1191 50.2305 97.752 52.2812V49.1367C96.0566 49.6289 94.334 49.9434 92.5703 50.0938V50.2578C93.3496 50.6543 93.8555 51.0508 94.0879 51.4473C94.3203 51.8438 94.4434 52.6504 94.4434 53.8809V59.7051C94.4434 60.7578 94.334 61.4551 94.1016 61.7969C93.8691 62.1387 93.3496 62.4805 92.543 62.8223V63.0137H99.666V62.8223C98.8867 62.4805 98.3809 62.1387 98.1621 61.7969C97.9434 61.4551 97.834 60.7578 97.834 59.7051V53.1016C98.3535 52.4043 98.8594 51.8848 99.3652 51.5293C99.8711 51.1738 100.5 50.9961 101.252 50.9961C102.031 50.9961 102.578 51.3105 102.893 51.9258C103.207 52.541 103.357 53.7578 103.357 55.5762C103.357 55.8633 103.357 56.5742 103.344 57.6953C103.33 58.8164 103.33 59.5 103.33 59.7324C103.316 60.7852 103.193 61.4824 102.975 61.8242C102.756 62.166 102.236 62.5078 101.43 62.8496V63.041H108.539V62.8496C107.76 62.5078 107.254 62.166 107.035 61.8242C106.816 61.4824 106.707 60.7852 106.707 59.7324L106.693 59.6914ZM114.473 63.2734C115.389 63.2734 116.223 63.0273 116.988 62.5488C117.754 62.0703 118.369 61.4688 118.834 60.7441H118.861V63.2871L124.016 62.4531V62.2891C123.25 62.002 122.744 61.7422 122.512 61.5098C122.279 61.2773 122.156 60.8809 122.156 60.3066V41.9453C120.461 42.4785 118.711 42.793 116.92 42.9023V43.0938C118.15 43.5723 118.766 44.3926 118.766 45.5547V50.709C118.355 50.3398 117.781 49.998 117.057 49.6836C116.332 49.3691 115.58 49.2051 114.801 49.2051C113.201 49.2051 111.848 49.8887 110.754 51.2559C109.66 52.623 109.113 54.3457 109.113 56.4375C109.113 58.5293 109.633 60.1973 110.686 61.4414C111.738 62.6855 112.996 63.3008 114.473 63.3008V63.2734ZM115.799 61.9883C114.801 61.9883 114.021 61.3867 113.447 60.1973C112.873 59.0078 112.586 57.4355 112.586 55.4941C112.586 53.9219 112.791 52.623 113.201 51.584C113.611 50.5449 114.268 50.0254 115.156 50.0254C115.963 50.0254 116.674 50.4355 117.289 51.2559C117.904 52.0762 118.383 53.0332 118.738 54.1406V60.0469C117.809 61.332 116.824 61.9746 115.771 61.9746L115.799 61.9883ZM127.734 47.209C128.254 47.209 128.705 47.0176 129.102 46.6484C129.498 46.2793 129.689 45.8418 129.689 45.3359C129.689 44.8438 129.498 44.4199 129.102 44.0508C128.705 43.6816 128.254 43.5039 127.734 43.5039C127.215 43.5039 126.764 43.6953 126.367 44.0645C125.971 44.4336 125.779 44.8574 125.779 45.3359C125.779 45.8418 125.971 46.2793 126.367 46.6484C126.764 47.0176 127.215 47.209 127.734 47.209ZM124.508 63H131.631V62.8086C130.852 62.4668 130.346 62.125 130.127 61.7832C129.908 61.4414 129.799 60.7441 129.799 59.6914V49.1367C128.24 49.6289 126.477 49.9434 124.521 50.0938V50.2852C125.301 50.6543 125.807 51.0371 126.039 51.4199C126.271 51.8027 126.395 52.623 126.395 53.8945V59.6914C126.395 60.7441 126.285 61.4414 126.053 61.7832C125.82 62.125 125.301 62.4668 124.494 62.8086L124.508 63ZM146.26 59.6914V53.2246C146.26 51.8438 145.863 50.832 145.084 50.1758C144.305 49.5195 143.389 49.1914 142.336 49.1914C140.354 49.2051 138.686 50.2305 137.318 52.2812V49.1367C135.623 49.6289 133.9 49.9434 132.137 50.0938V50.2578C132.916 50.6543 133.422 51.0508 133.654 51.4473C133.887 51.8438 134.01 52.6504 134.01 53.8809V59.7051C134.01 60.7578 133.9 61.4551 133.668 61.7969C133.436 62.1387 132.916 62.4805 132.109 62.8223V63.0137H139.232V62.8223C138.453 62.4805 137.947 62.1387 137.729 61.7969C137.51 61.4551 137.4 60.7578 137.4 59.7051V53.1016C137.92 52.4043 138.426 51.8848 138.932 51.5293C139.438 51.1738 140.066 50.9961 140.818 50.9961C141.598 50.9961 142.145 51.3105 142.459 51.9258C142.773 52.541 142.924 53.7578 142.924 55.5762C142.924 55.8633 142.924 56.5742 142.91 57.6953C142.896 58.8164 142.896 59.5 142.896 59.7324C142.883 60.7852 142.76 61.4824 142.541 61.8242C142.322 62.166 141.803 62.5078 140.996 62.8496V63.041H148.105V62.8496C147.326 62.5078 146.82 62.166 146.602 61.8242C146.383 61.4824 146.273 60.7852 146.273 59.7324L146.26 59.6914ZM158.688 61.0176C158.018 60.8672 156.896 60.6211 155.324 60.2656C153.752 59.9102 152.959 59.7461 152.959 59.7598L152.617 59.623C152.398 59.5137 152.289 59.3223 152.289 59.0625C152.289 58.543 152.713 58.1738 153.574 57.9688C153.998 58.0371 154.449 58.0645 154.914 58.0645C156.691 58.0645 158.1 57.668 159.139 56.875C160.178 56.082 160.697 55.0703 160.697 53.8398C160.697 52.7324 160.301 51.8301 159.494 51.1328C158.688 50.4355 157.676 49.957 156.459 49.6973V49.5879C157.02 49.6836 157.484 49.7246 157.854 49.7246C159.521 49.7246 160.807 49.1777 161.695 48.0977V47.9883L158.975 47.0723C158.906 47.6465 158.551 48.1387 157.922 48.5625C157.293 48.9863 156.336 49.1914 155.064 49.1914H154.613C153.027 49.1914 151.729 49.6016 150.703 50.4082C149.678 51.2148 149.172 52.3086 149.172 53.6758C149.172 54.7422 149.5 55.6309 150.143 56.3418C150.785 57.0527 151.674 57.5586 152.809 57.8457C151.852 58.0918 151.086 58.4609 150.512 58.9395C149.938 59.418 149.65 59.9785 149.65 60.6211C149.664 61.6875 150.512 62.4121 152.207 62.7812C152.316 62.7949 152.385 62.8086 152.426 62.8086C152.439 62.8223 152.467 62.8359 152.508 62.8359C152.275 62.8906 152.029 62.959 151.77 63.0547C151.51 63.1504 151.1 63.3145 150.539 63.5605C149.979 63.8066 149.527 64.1348 149.186 64.5312C148.844 64.9277 148.666 65.3652 148.666 65.8438C148.666 66.5 149.008 67.0605 149.705 67.5254C150.402 67.9902 151.223 68.3184 152.152 68.5098C153.082 68.7012 154.053 68.7969 155.064 68.7969C155.885 68.7969 156.691 68.7285 157.498 68.5781C158.305 68.4277 159.07 68.1953 159.795 67.8809C160.52 67.5664 161.107 67.1289 161.559 66.5547C162.01 65.9805 162.229 65.3242 162.229 64.5723C162.229 63.6562 161.9 62.9043 161.258 62.3164C160.615 61.7285 159.754 61.3047 158.674 61.0449L158.688 61.0176ZM154.559 49.7793C155.434 49.7793 156.145 50.2852 156.691 51.2832C157.238 52.2812 157.512 53.375 157.512 54.5645C157.512 55.5488 157.307 56.2871 156.91 56.7793C156.514 57.2715 156.008 57.5176 155.393 57.5176C154.463 57.5176 153.725 57.0117 153.191 56.0137C152.658 55.0156 152.385 53.9355 152.385 52.7734C152.385 51.7891 152.59 51.0371 153 50.5176C153.41 49.998 153.93 49.7383 154.545 49.7383L154.559 49.7793ZM155.406 68.1406C154.189 68.1406 153.178 67.9219 152.371 67.4707C151.564 67.0195 151.168 66.377 151.168 65.543C151.168 64.4902 151.824 63.6289 153.15 62.9727C153.164 62.9727 153.465 63.0273 154.066 63.1367C154.668 63.2461 155.324 63.3691 156.035 63.5059C156.746 63.6426 157.238 63.752 157.498 63.8203C158.141 63.998 158.646 64.2578 159.002 64.6133C159.357 64.9688 159.535 65.3789 159.535 65.8438C159.535 66.5957 159.125 67.1699 158.318 67.5664C157.512 67.9629 156.541 68.1543 155.406 68.1543V68.1406Z" fill="black"/>
</svg>
