<svg width="285" height="110" viewBox="0 0 285 110" fill="none" xmlns="http://www.w3.org/2000/svg">
<rect width="285" height="110" rx="55" fill="#FCF081"/>
<path d="M58.0215 63.3691C58.9648 63.3691 59.8398 63.2324 60.6602 62.959C61.4805 62.6855 62.1777 62.4121 62.752 62.1387C63.3262 61.8652 63.8047 61.7285 64.2012 61.7285C64.8438 61.7285 65.4863 61.9746 66.1289 62.4805H66.293V56.0957C66.293 55.2891 66.334 54.7012 66.416 54.3184C66.498 53.9355 66.6211 53.6484 66.7852 53.457C66.9492 53.2656 67.25 53.0195 67.7012 52.7188V52.5547H59.1016V52.8691C60.4824 52.8828 61.4121 53.1562 61.877 53.6758C62.3418 54.1953 62.5742 55.002 62.5742 56.1094V59.8691C62.5742 60.5117 62.3555 61.0586 61.918 61.4961C61.4805 61.9336 61.002 62.2207 60.4961 62.3438C59.9902 62.4668 59.457 62.5352 58.8965 62.5352C57.2695 62.5352 55.875 61.7285 54.7129 60.1152C53.5508 58.502 52.9629 56.123 52.9629 52.9648C52.9629 49.8613 53.5234 47.4824 54.6445 45.8281C55.7656 44.1738 57.1328 43.3535 58.7598 43.3535C61.1523 43.3672 63.4492 45.1855 65.6504 48.8223H65.8281L65.2949 43.75C63.1621 42.9844 61.043 42.6016 58.9375 42.6016C55.9434 42.6016 53.5098 43.5449 51.6367 45.4453C49.7637 47.3457 48.834 49.9297 48.834 53.1973C48.834 56.4102 49.709 58.9121 51.4727 60.7031C53.2363 62.4941 55.4102 63.3828 58.0078 63.3828L58.0215 63.3691ZM69.3008 63H76.8887V62.8086C75.9043 62.4668 75.2754 62.125 75.002 61.7832C74.7285 61.4414 74.5918 60.7441 74.5918 59.6914V52.7188C75.0156 51.8301 75.5762 51.3789 76.2734 51.3789C77.0801 51.3789 77.9961 52.0078 79.0215 53.2793H79.2129L79.6094 49.5605C79.2402 49.3145 78.7891 49.1914 78.2695 49.1914C77.3262 49.1914 76.5332 49.4785 75.877 50.0527C75.2207 50.627 74.7559 51.2695 74.4961 51.9805H74.4141L74.4961 49.1504C72.8555 49.6426 71.1328 49.957 69.3145 50.1074V50.2715C70.1211 50.6133 70.6406 50.9961 70.8594 51.4336C71.0781 51.8711 71.1875 52.6641 71.1875 53.7988V59.7051C71.1875 60.7578 71.0781 61.4551 70.8457 61.7969C70.6133 62.1387 70.0938 62.4805 69.2871 62.8223L69.3008 63ZM91.2852 63.2734C92.0918 63.2734 92.748 63.0137 93.2539 62.4941C93.7598 61.9746 94.1426 61.3457 94.3887 60.6211L94.1699 60.5117C93.8008 61.3184 93.377 61.7148 92.8984 61.7148C92.4336 61.7148 92.2012 61.4004 92.2012 60.7578L92.3652 53.4844C92.4062 52.2949 92.0508 51.2832 91.2988 50.4492C90.5469 49.6152 89.3164 49.2051 87.6211 49.2051C86.0898 49.2051 84.8047 49.5332 83.7656 50.1895C82.7266 50.8457 81.9609 51.5977 81.4824 52.459L83.9844 54.1133L84.1211 54.0859C84.2715 52.9512 84.5996 51.9531 85.1191 51.0781C85.6387 50.2031 86.3496 49.7656 87.2383 49.7656C87.9355 49.7656 88.4277 49.998 88.7285 50.4629C89.0293 50.9277 89.166 51.4609 89.1523 52.0625L89.0977 54.0859C86.2266 54.8652 84.0664 55.7402 82.6035 56.6973C81.1406 57.6543 80.416 58.7754 80.416 60.0605C80.416 61.0039 80.7441 61.7695 81.4141 62.3574C82.084 62.9453 82.9863 63.2461 84.1211 63.2461C85.2422 63.2461 86.2266 62.959 87.0879 62.3984C87.9492 61.8379 88.5781 61.1816 88.9883 60.4297H89.043C89.002 61.1953 89.1523 61.8652 89.4941 62.4395C89.8359 63.0137 90.4375 63.3008 91.3125 63.3008L91.2852 63.2734ZM85.8848 61.3457C85.3105 61.3457 84.8457 61.1543 84.5039 60.7715C84.1621 60.3887 83.9844 59.8555 83.9844 59.1855C83.9844 58.2559 84.3672 57.4082 85.1465 56.6562C85.9258 55.9043 87.2383 55.2344 89.084 54.6602L88.9473 59.6641C87.9629 60.7852 86.9375 61.3457 85.8711 61.3457H85.8848ZM103.918 49.1914C102.264 49.1914 100.842 50.0117 99.6523 51.666L99.5977 51.6387L99.625 49.1367C97.9434 49.6289 96.2207 49.9434 94.4434 50.0938V50.2578C95.1953 50.4629 95.6875 50.6816 95.9336 50.9004C96.1797 51.1191 96.3027 51.4883 96.3027 51.9941V65.2969C96.3027 66.3496 96.1934 67.0469 95.9746 67.3887C95.7559 67.7305 95.25 68.0723 94.4707 68.4141V68.6191H102.318V68.4141C101.211 68.0723 100.5 67.7305 100.186 67.3887C99.8711 67.0469 99.707 66.3496 99.707 65.2969V61.6328H99.7617C100.938 62.7266 102.25 63.2734 103.686 63.2734C105.217 63.2734 106.557 62.6035 107.691 61.2637C108.826 59.9238 109.4 58.1602 109.4 55.9727C109.4 53.9355 108.881 52.2949 107.842 51.0508C106.803 49.8066 105.504 49.1914 103.959 49.1914H103.918ZM103.262 62.4668C102.4 62.4668 101.676 62.0293 101.074 61.168C100.473 60.3066 100.008 59.3086 99.6934 58.1738V52.4863C100.664 51.1875 101.621 50.5312 102.551 50.5312C103.631 50.5312 104.451 51.1602 105.012 52.4043C105.572 53.6484 105.846 55.2344 105.846 57.1621C105.846 58.8164 105.627 60.1152 105.189 61.0586C104.752 62.002 104.096 62.4805 103.234 62.4805L103.262 62.4668ZM124.139 59.6914V53.2246C124.139 51.8438 123.742 50.832 122.963 50.1758C122.184 49.5195 121.268 49.1914 120.215 49.1914C118.26 49.1914 116.619 50.1758 115.293 52.1582V42.0273C113.734 42.5195 111.971 42.834 110.016 42.9844V43.1758C110.795 43.5449 111.301 43.9277 111.533 44.3105C111.766 44.6934 111.889 45.5137 111.889 46.7852V59.6914C111.889 60.7441 111.779 61.4414 111.547 61.7832C111.314 62.125 110.795 62.4668 109.988 62.8086V63H117.111V62.8086C116.332 62.4668 115.826 62.125 115.607 61.7832C115.389 61.4414 115.279 60.7441 115.279 59.6914V53.0879C116.25 51.6797 117.33 50.9824 118.52 50.9824C120.037 50.9824 120.789 52.0898 120.789 54.3184C120.789 54.4824 120.775 56.2734 120.762 59.6914C120.762 60.7441 120.652 61.4414 120.434 61.7832C120.215 62.125 119.695 62.4668 118.889 62.8086V63H125.971V62.8086C125.191 62.4668 124.686 62.125 124.467 61.7832C124.248 61.4414 124.139 60.7441 124.139 59.6914ZM129.703 47.209C130.223 47.209 130.674 47.0176 131.07 46.6484C131.467 46.2793 131.658 45.8418 131.658 45.3359C131.658 44.8438 131.467 44.4199 131.07 44.0508C130.674 43.6816 130.223 43.5039 129.703 43.5039C129.184 43.5039 128.732 43.6953 128.336 44.0645C127.939 44.4336 127.748 44.8574 127.748 45.3359C127.748 45.8418 127.939 46.2793 128.336 46.6484C128.732 47.0176 129.184 47.209 129.703 47.209ZM126.477 63H133.6V62.8086C132.82 62.4668 132.314 62.125 132.096 61.7832C131.877 61.4414 131.768 60.7441 131.768 59.6914V49.1367C130.209 49.6289 128.445 49.9434 126.49 50.0938V50.2852C127.27 50.6543 127.775 51.0371 128.008 51.4199C128.24 51.8027 128.363 52.623 128.363 53.8945V59.6914C128.363 60.7441 128.254 61.4414 128.021 61.7832C127.789 62.125 127.27 62.4668 126.463 62.8086L126.477 63ZM140.668 63.2734C142.268 63.2734 143.525 62.7812 144.441 61.7969C145.357 60.8125 145.945 59.6367 146.205 58.2695L145.945 58.1602C145.658 58.8848 145.193 59.5137 144.551 60.0469C143.908 60.5801 143.088 60.8398 142.09 60.8398C140.709 60.8398 139.561 60.3066 138.645 59.2402C137.729 58.1738 137.277 56.7383 137.277 54.9199C137.277 53.4434 137.564 52.2402 138.139 51.2969C138.713 50.3535 139.41 49.8887 140.23 49.8887C141.01 49.8887 141.639 50.3125 142.117 51.1602C142.596 52.0078 142.896 52.9785 143.006 54.0586L143.156 54.1133L145.672 52.1445C145.152 51.3652 144.441 50.6816 143.553 50.1074C142.664 49.5332 141.625 49.2461 140.449 49.2461C138.713 49.2461 137.236 49.8887 136.006 51.1738C134.775 52.459 134.16 54.168 134.16 56.3008C134.16 58.4336 134.789 60.1426 136.033 61.4277C137.277 62.7129 138.809 63.3555 140.627 63.3555L140.668 63.2734ZM161.039 42.9844H153.451V43.1758C154.504 43.5723 155.146 43.9414 155.393 44.2832C155.639 44.625 155.762 45.3633 155.762 46.498V59.459C155.762 60.5938 155.639 61.332 155.393 61.6738C155.146 62.0156 154.49 62.3848 153.438 62.7812V62.9727H162.311C165.373 62.9727 167.807 61.9883 169.625 60.0059C171.443 58.0234 172.346 55.5352 172.346 52.541C172.346 49.6016 171.389 47.2637 169.475 45.541C167.561 43.8184 164.73 42.957 160.998 42.957L161.039 42.9844ZM162.42 62.166C160.52 62.0703 159.562 61.6465 159.562 60.8945V43.7363H160.861C165.77 43.7363 168.217 46.7305 168.217 52.7188C168.217 55.5762 167.697 57.8457 166.672 59.5137C165.646 61.1816 164.225 62.0703 162.406 62.1797L162.42 62.166ZM186.059 58.2695C185.252 59.9785 183.939 60.8398 182.107 60.8398C180.672 60.8398 179.469 60.3613 178.484 59.3906C177.5 58.4199 177.008 56.957 177.008 55.002L177.035 54.6738H186.154V54.332C186.154 54.0859 186.113 53.7852 186.031 53.4297C185.949 53.0742 185.785 52.6367 185.525 52.1309C185.266 51.625 184.951 51.1602 184.568 50.7363C184.186 50.3125 183.652 49.957 182.955 49.6562C182.258 49.3555 181.479 49.2051 180.604 49.2051C178.676 49.2051 177.076 49.8613 175.805 51.1738C174.533 52.4863 173.891 54.1953 173.891 56.2871C173.891 58.3789 174.533 60.0742 175.818 61.3594C177.104 62.6445 178.717 63.2871 180.658 63.2871C181.629 63.2871 182.477 63.123 183.201 62.7812C183.926 62.4395 184.486 61.9883 184.883 61.4141C185.279 60.8398 185.58 60.3203 185.785 59.8418C185.99 59.3633 186.141 58.8848 186.236 58.4062L186.059 58.2695ZM180.029 49.957C180.549 49.957 181.014 50.1211 181.41 50.4355C181.807 50.75 182.107 51.1465 182.312 51.625C182.518 52.1035 182.668 52.541 182.764 52.9375C182.859 53.334 182.914 53.7031 182.928 54.0449L177.021 54.0996C177.172 52.7871 177.5 51.7754 178.02 51.0508C178.539 50.3262 179.195 49.9707 180.002 49.9707L180.029 49.957ZM193.168 63.3691C194.604 63.3691 195.752 63.0137 196.627 62.2891C197.502 61.5645 197.939 60.6074 197.939 59.418C197.939 58.3652 197.598 57.5039 196.914 56.834C196.23 56.1641 195.219 55.5078 193.879 54.8516C193.277 54.5645 192.826 54.332 192.525 54.1543C192.225 53.9766 191.896 53.7578 191.541 53.4844C191.186 53.2109 190.926 52.9238 190.775 52.623C190.625 52.3223 190.543 51.9941 190.543 51.625C190.543 51.0781 190.707 50.6406 191.035 50.2988C191.363 49.957 191.773 49.793 192.252 49.793C193.633 49.8066 195.164 51.0645 196.846 53.5664L197.037 53.5391L196.736 50.0391C195.068 49.4512 193.633 49.1641 192.443 49.1641C191.199 49.1641 190.119 49.4922 189.217 50.1484C188.314 50.8047 187.863 51.748 187.863 52.9785C187.863 53.457 187.945 53.9082 188.123 54.332C188.301 54.7559 188.506 55.1113 188.738 55.3984C188.971 55.6855 189.299 55.9727 189.723 56.2734C190.146 56.5742 190.488 56.793 190.748 56.9434C191.008 57.0938 191.391 57.2988 191.896 57.5449C193.004 58.1055 193.824 58.6113 194.357 59.0625C194.891 59.5137 195.15 60.0879 195.15 60.7852C195.15 61.3457 194.973 61.8105 194.617 62.1797C194.262 62.5488 193.811 62.7266 193.25 62.7266C191.773 62.7129 190.051 61.2773 188.068 58.4199L187.904 58.4473L188.287 62.2344C190.105 62.9863 191.732 63.3555 193.168 63.3555V63.3691ZM202.191 47.209C202.711 47.209 203.162 47.0176 203.559 46.6484C203.955 46.2793 204.146 45.8418 204.146 45.3359C204.146 44.8438 203.955 44.4199 203.559 44.0508C203.162 43.6816 202.711 43.5039 202.191 43.5039C201.672 43.5039 201.221 43.6953 200.824 44.0645C200.428 44.4336 200.236 44.8574 200.236 45.3359C200.236 45.8418 200.428 46.2793 200.824 46.6484C201.221 47.0176 201.672 47.209 202.191 47.209ZM198.965 63H206.088V62.8086C205.309 62.4668 204.803 62.125 204.584 61.7832C204.365 61.4414 204.256 60.7441 204.256 59.6914V49.1367C202.697 49.6289 200.934 49.9434 198.979 50.0938V50.2852C199.758 50.6543 200.264 51.0371 200.496 51.4199C200.729 51.8027 200.852 52.623 200.852 53.8945V59.6914C200.852 60.7441 200.742 61.4414 200.51 61.7832C200.277 62.125 199.758 62.4668 198.951 62.8086L198.965 63ZM216.684 61.0176C216.014 60.8672 214.893 60.6211 213.32 60.2656C211.748 59.9102 210.955 59.7461 210.955 59.7598L210.613 59.623C210.395 59.5137 210.285 59.3223 210.285 59.0625C210.285 58.543 210.709 58.1738 211.57 57.9688C211.994 58.0371 212.445 58.0645 212.91 58.0645C214.688 58.0645 216.096 57.668 217.135 56.875C218.174 56.082 218.693 55.0703 218.693 53.8398C218.693 52.7324 218.297 51.8301 217.49 51.1328C216.684 50.4355 215.672 49.957 214.455 49.6973V49.5879C215.016 49.6836 215.48 49.7246 215.85 49.7246C217.518 49.7246 218.803 49.1777 219.691 48.0977V47.9883L216.971 47.0723C216.902 47.6465 216.547 48.1387 215.918 48.5625C215.289 48.9863 214.332 49.1914 213.061 49.1914H212.609C211.023 49.1914 209.725 49.6016 208.699 50.4082C207.674 51.2148 207.168 52.3086 207.168 53.6758C207.168 54.7422 207.496 55.6309 208.139 56.3418C208.781 57.0527 209.67 57.5586 210.805 57.8457C209.848 58.0918 209.082 58.4609 208.508 58.9395C207.934 59.418 207.646 59.9785 207.646 60.6211C207.66 61.6875 208.508 62.4121 210.203 62.7812C210.312 62.7949 210.381 62.8086 210.422 62.8086C210.436 62.8223 210.463 62.8359 210.504 62.8359C210.271 62.8906 210.025 62.959 209.766 63.0547C209.506 63.1504 209.096 63.3145 208.535 63.5605C207.975 63.8066 207.523 64.1348 207.182 64.5312C206.84 64.9277 206.662 65.3652 206.662 65.8438C206.662 66.5 207.004 67.0605 207.701 67.5254C208.398 67.9902 209.219 68.3184 210.148 68.5098C211.078 68.7012 212.049 68.7969 213.061 68.7969C213.881 68.7969 214.688 68.7285 215.494 68.5781C216.301 68.4277 217.066 68.1953 217.791 67.8809C218.516 67.5664 219.104 67.1289 219.555 66.5547C220.006 65.9805 220.225 65.3242 220.225 64.5723C220.225 63.6562 219.896 62.9043 219.254 62.3164C218.611 61.7285 217.75 61.3047 216.67 61.0449L216.684 61.0176ZM212.555 49.7793C213.43 49.7793 214.141 50.2852 214.688 51.2832C215.234 52.2812 215.508 53.375 215.508 54.5645C215.508 55.5488 215.303 56.2871 214.906 56.7793C214.51 57.2715 214.004 57.5176 213.389 57.5176C212.459 57.5176 211.721 57.0117 211.188 56.0137C210.654 55.0156 210.381 53.9355 210.381 52.7734C210.381 51.7891 210.586 51.0371 210.996 50.5176C211.406 49.998 211.926 49.7383 212.541 49.7383L212.555 49.7793ZM213.402 68.1406C212.186 68.1406 211.174 67.9219 210.367 67.4707C209.561 67.0195 209.164 66.377 209.164 65.543C209.164 64.4902 209.82 63.6289 211.146 62.9727C211.16 62.9727 211.461 63.0273 212.062 63.1367C212.664 63.2461 213.32 63.3691 214.031 63.5059C214.742 63.6426 215.234 63.752 215.494 63.8203C216.137 63.998 216.643 64.2578 216.998 64.6133C217.354 64.9688 217.531 65.3789 217.531 65.8438C217.531 66.5957 217.121 67.1699 216.314 67.5664C215.508 67.9629 214.537 68.1543 213.402 68.1543V68.1406ZM234.908 59.6914V53.2246C234.908 51.8438 234.512 50.832 233.732 50.1758C232.953 49.5195 232.037 49.1914 230.984 49.1914C229.002 49.2051 227.334 50.2305 225.967 52.2812V49.1367C224.271 49.6289 222.549 49.9434 220.785 50.0938V50.2578C221.564 50.6543 222.07 51.0508 222.303 51.4473C222.535 51.8438 222.658 52.6504 222.658 53.8809V59.7051C222.658 60.7578 222.549 61.4551 222.316 61.7969C222.084 62.1387 221.564 62.4805 220.758 62.8223V63.0137H227.881V62.8223C227.102 62.4805 226.596 62.1387 226.377 61.7969C226.158 61.4551 226.049 60.7578 226.049 59.7051V53.1016C226.568 52.4043 227.074 51.8848 227.58 51.5293C228.086 51.1738 228.715 50.9961 229.467 50.9961C230.246 50.9961 230.793 51.3105 231.107 51.9258C231.422 52.541 231.572 53.7578 231.572 55.5762C231.572 55.8633 231.572 56.5742 231.559 57.6953C231.545 58.8164 231.545 59.5 231.545 59.7324C231.531 60.7852 231.408 61.4824 231.189 61.8242C230.971 62.166 230.451 62.5078 229.645 62.8496V63.041H236.754V62.8496C235.975 62.5078 235.469 62.166 235.25 61.8242C235.031 61.4824 234.922 60.7852 234.922 59.7324L234.908 59.6914Z" fill="black"/>
</svg>
