<svg width="181" height="181" viewBox="0 0 181 181" fill="none" xmlns="http://www.w3.org/2000/svg">
<path d="M90.5 0.5L135.5 12.5577L168.442 45.5L180.5 90.5L168.442 135.5L135.5 168.442L90.5 180.5L45.5 168.442L12.5577 135.5L0.5 90.5L12.5577 45.5L45.5 12.5577L90.5 0.5Z" fill="#D25941"/>
<path d="M43.0391 62.4844H35.4512V62.6758C36.5039 63.0723 37.1465 63.4414 37.3926 63.7832C37.6387 64.125 37.7617 64.8633 37.7617 65.998V78.959C37.7617 80.0938 37.6387 80.832 37.3926 81.1738C37.1465 81.5156 36.4902 81.8848 35.4375 82.2812V82.4727H44.3105C47.373 82.4727 49.8066 81.4883 51.625 79.5059C53.4434 77.5234 54.3457 75.0352 54.3457 72.041C54.3457 69.1016 53.3887 66.7637 51.4746 65.041C49.5605 63.3184 46.7305 62.457 42.998 62.457L43.0391 62.4844ZM44.4199 81.666C42.5195 81.5703 41.5625 81.1465 41.5625 80.3945V63.2363H42.8613C47.7695 63.2363 50.2168 66.2305 50.2168 72.2188C50.2168 75.0762 49.6973 77.3457 48.6719 79.0137C47.6465 80.6816 46.2246 81.5703 44.4062 81.6797L44.4199 81.666ZM58.707 66.709C59.2266 66.709 59.6777 66.5176 60.0742 66.1484C60.4707 65.7793 60.6621 65.3418 60.6621 64.8359C60.6621 64.3438 60.4707 63.9199 60.0742 63.5508C59.6777 63.1816 59.2266 63.0039 58.707 63.0039C58.1875 63.0039 57.7363 63.1953 57.3398 63.5645C56.9434 63.9336 56.752 64.3574 56.752 64.8359C56.752 65.3418 56.9434 65.7793 57.3398 66.1484C57.7363 66.5176 58.1875 66.709 58.707 66.709ZM55.4805 82.5H62.6035V82.3086C61.8242 81.9668 61.3184 81.625 61.0996 81.2832C60.8809 80.9414 60.7715 80.2441 60.7715 79.1914V68.6367C59.2129 69.1289 57.4492 69.4434 55.4941 69.5938V69.7852C56.2734 70.1543 56.7793 70.5371 57.0117 70.9199C57.2441 71.3027 57.3672 72.123 57.3672 73.3945V79.1914C57.3672 80.2441 57.2578 80.9414 57.0254 81.2832C56.793 81.625 56.2734 81.9668 55.4668 82.3086L55.4805 82.5ZM68.9883 82.8691C70.4238 82.8691 71.5723 82.5137 72.4473 81.7891C73.3223 81.0645 73.7598 80.1074 73.7598 78.918C73.7598 77.8652 73.418 77.0039 72.7344 76.334C72.0508 75.6641 71.0391 75.0078 69.6992 74.3516C69.0977 74.0645 68.6465 73.832 68.3457 73.6543C68.0449 73.4766 67.7168 73.2578 67.3613 72.9844C67.0059 72.7109 66.7461 72.4238 66.5957 72.123C66.4453 71.8223 66.3633 71.4941 66.3633 71.125C66.3633 70.5781 66.5273 70.1406 66.8555 69.7988C67.1836 69.457 67.5938 69.293 68.0723 69.293C69.4531 69.3066 70.9844 70.5645 72.666 73.0664L72.8574 73.0391L72.5566 69.5391C70.8887 68.9512 69.4531 68.6641 68.2637 68.6641C67.0195 68.6641 65.9395 68.9922 65.0371 69.6484C64.1348 70.3047 63.6836 71.248 63.6836 72.4785C63.6836 72.957 63.7656 73.4082 63.9434 73.832C64.1211 74.2559 64.3262 74.6113 64.5586 74.8984C64.791 75.1855 65.1191 75.4727 65.543 75.7734C65.9668 76.0742 66.3086 76.293 66.5684 76.4434C66.8281 76.5938 67.2109 76.7988 67.7168 77.0449C68.8242 77.6055 69.6445 78.1113 70.1777 78.5625C70.7109 79.0137 70.9707 79.5879 70.9707 80.2852C70.9707 80.8457 70.793 81.3105 70.4375 81.6797C70.082 82.0488 69.6309 82.2266 69.0703 82.2266C67.5938 82.2129 65.8711 80.7773 63.8887 77.9199L63.7246 77.9473L64.1074 81.7344C65.9258 82.4863 67.5527 82.8555 68.9883 82.8555V82.8691ZM81.7031 82.7734C83.3027 82.7734 84.5605 82.2812 85.4766 81.2969C86.3926 80.3125 86.9805 79.1367 87.2402 77.7695L86.9805 77.6602C86.6934 78.3848 86.2285 79.0137 85.5859 79.5469C84.9434 80.0801 84.123 80.3398 83.125 80.3398C81.7441 80.3398 80.5957 79.8066 79.6797 78.7402C78.7637 77.6738 78.3125 76.2383 78.3125 74.4199C78.3125 72.9434 78.5996 71.7402 79.1738 70.7969C79.748 69.8535 80.4453 69.3887 81.2656 69.3887C82.0449 69.3887 82.6738 69.8125 83.1523 70.6602C83.6309 71.5078 83.9316 72.4785 84.041 73.5586L84.1914 73.6133L86.707 71.6445C86.1875 70.8652 85.4766 70.1816 84.5879 69.6074C83.6992 69.0332 82.6602 68.7461 81.4844 68.7461C79.748 68.7461 78.2715 69.3887 77.041 70.6738C75.8105 71.959 75.1953 73.668 75.1953 75.8008C75.1953 77.9336 75.8242 79.6426 77.0684 80.9277C78.3125 82.2129 79.8438 82.8555 81.6621 82.8555L81.7031 82.7734ZM95.1699 82.7734C97.2754 82.7734 98.9434 82.1035 100.188 80.75C101.432 79.3965 102.047 77.6875 102.047 75.6094C102.047 73.5312 101.418 71.8633 100.174 70.5918C98.9297 69.3203 97.3027 68.6914 95.293 68.6914C93.1738 68.6914 91.4922 69.375 90.248 70.7559C89.0039 72.1367 88.375 73.8457 88.375 75.8965C88.375 77.9609 89.0039 79.6289 90.2617 80.8867C91.5195 82.1445 93.1465 82.7734 95.1562 82.7734H95.1699ZM95.7715 82.1309C95.1152 82.1309 94.5273 81.8438 93.9941 81.2695C93.4609 80.6953 93.0508 79.9844 92.75 79.123C92.4492 78.2617 92.2168 77.3867 92.0664 76.4844C91.916 75.582 91.834 74.748 91.834 73.9688C91.834 72.4648 92.1074 71.3164 92.6543 70.5234C93.2012 69.7305 93.8711 69.334 94.6777 69.334C95.334 69.334 95.9219 69.6211 96.4551 70.1816C96.9883 70.7422 97.3984 71.4531 97.6855 72.3281C97.9727 73.2031 98.1914 74.0781 98.3418 74.9668C98.4922 75.8555 98.5605 76.6895 98.5605 77.4688C98.5605 79 98.2871 80.1621 97.7402 80.9414C97.1934 81.7207 96.5234 82.1172 95.7441 82.1172L95.7715 82.1309ZM112.068 69.0332V69.2246C112.67 69.5391 113.094 69.8262 113.34 70.0723C113.586 70.3184 113.709 70.6191 113.709 70.9609C113.709 71.248 113.641 71.5625 113.518 71.9043C113.504 71.9453 113.449 72.0957 113.354 72.3555C113.258 72.6152 113.135 72.957 112.971 73.3672C112.807 73.7773 112.629 74.2559 112.424 74.7891C112.219 75.3223 111.973 75.9512 111.699 76.6621C111.426 77.373 111.139 78.084 110.838 78.7949L107.98 71.9316C107.762 71.3984 107.652 71.0156 107.652 70.7832C107.652 70.4824 107.775 70.2227 108.008 70.0039C108.24 69.7852 108.664 69.5391 109.266 69.2793V69.0879H102.074V69.2793C102.676 69.5938 103.127 69.8945 103.414 70.1816C103.701 70.4688 103.934 70.8379 104.111 71.2891L108.979 82.5957H109.908L114.324 72.041C114.625 71.3438 114.912 70.8242 115.186 70.4824C115.459 70.1406 115.979 69.7441 116.744 69.2793V69.0879L112.068 69.0332ZM128.488 77.7695C127.682 79.4785 126.369 80.3398 124.537 80.3398C123.102 80.3398 121.898 79.8613 120.914 78.8906C119.93 77.9199 119.438 76.457 119.438 74.502L119.465 74.1738H128.584V73.832C128.584 73.5859 128.543 73.2852 128.461 72.9297C128.379 72.5742 128.215 72.1367 127.955 71.6309C127.695 71.125 127.381 70.6602 126.998 70.2363C126.615 69.8125 126.082 69.457 125.385 69.1562C124.688 68.8555 123.908 68.7051 123.033 68.7051C121.105 68.7051 119.506 69.3613 118.234 70.6738C116.963 71.9863 116.32 73.6953 116.32 75.7871C116.32 77.8789 116.963 79.5742 118.248 80.8594C119.533 82.1445 121.146 82.7871 123.088 82.7871C124.059 82.7871 124.906 82.623 125.631 82.2812C126.355 81.9395 126.916 81.4883 127.312 80.9141C127.709 80.3398 128.01 79.8203 128.215 79.3418C128.42 78.8633 128.57 78.3848 128.666 77.9062L128.488 77.7695ZM122.459 69.457C122.979 69.457 123.443 69.6211 123.84 69.9355C124.236 70.25 124.537 70.6465 124.742 71.125C124.947 71.6035 125.098 72.041 125.193 72.4375C125.289 72.834 125.344 73.2031 125.357 73.5449L119.451 73.5996C119.602 72.2871 119.93 71.2754 120.449 70.5508C120.969 69.8262 121.625 69.4707 122.432 69.4707L122.459 69.457ZM129.527 82.5H137.115V82.3086C136.131 81.9668 135.502 81.625 135.229 81.2832C134.955 80.9414 134.818 80.2441 134.818 79.1914V72.2188C135.242 71.3301 135.803 70.8789 136.5 70.8789C137.307 70.8789 138.223 71.5078 139.248 72.7793H139.439L139.836 69.0605C139.467 68.8145 139.016 68.6914 138.496 68.6914C137.553 68.6914 136.76 68.9785 136.104 69.5527C135.447 70.127 134.982 70.7695 134.723 71.4805H134.641L134.723 68.6504C133.082 69.1426 131.359 69.457 129.541 69.6074V69.7715C130.348 70.1133 130.867 70.4961 131.086 70.9336C131.305 71.3711 131.414 72.1641 131.414 73.2988V79.2051C131.414 80.2578 131.305 80.9551 131.072 81.2969C130.84 81.6387 130.32 81.9805 129.514 82.3223L129.527 82.5ZM83.8906 94.6758V94.4844H78.3945L72.0508 106.639C70.1504 102.852 67.9629 98.8047 65.4883 94.498H59.418V94.6895C59.9375 94.9355 60.457 95.2637 60.9902 95.6875C61.5234 96.1113 61.9062 96.5488 62.1523 97V108.949C62.1523 110.371 62.0703 111.41 61.9062 112.053C61.7422 112.695 61.4961 113.16 61.1543 113.447C60.8125 113.734 60.2109 114.035 59.3496 114.35V114.541H65.7344V114.35C64.873 114.035 64.2715 113.734 63.9297 113.447C63.5879 113.16 63.3418 112.695 63.1777 112.053C63.0137 111.41 62.9316 110.385 62.9316 108.963V98.0254C65.4062 102.141 67.8398 106.557 70.2461 111.26H70.7383C71.75 109.031 74.0332 104.547 77.6016 97.8066H77.6562V111C77.6562 112.135 77.5332 112.873 77.2871 113.215C77.041 113.557 76.3848 113.926 75.332 114.322V114.514H83.8223V114.322C82.7695 113.926 82.1133 113.557 81.8672 113.215C81.6211 112.873 81.498 112.135 81.498 111V98.0391C81.498 96.9043 81.6211 96.166 81.8672 95.8242C82.1133 95.4824 82.7559 95.1133 83.8086 94.7168L83.8906 94.6758ZM91.3008 114.773C93.4062 114.773 95.0742 114.104 96.3184 112.75C97.5625 111.396 98.1777 109.688 98.1777 107.609C98.1777 105.531 97.5488 103.863 96.3047 102.592C95.0605 101.32 93.4336 100.691 91.4238 100.691C89.3047 100.691 87.623 101.375 86.3789 102.756C85.1348 104.137 84.5059 105.846 84.5059 107.896C84.5059 109.961 85.1348 111.629 86.3926 112.887C87.6504 114.145 89.2773 114.773 91.2871 114.773H91.3008ZM91.9023 114.131C91.2461 114.131 90.6582 113.844 90.125 113.27C89.5918 112.695 89.1816 111.984 88.8809 111.123C88.5801 110.262 88.3477 109.387 88.1973 108.484C88.0469 107.582 87.9648 106.748 87.9648 105.969C87.9648 104.465 88.2383 103.316 88.7852 102.523C89.332 101.73 90.002 101.334 90.8086 101.334C91.4648 101.334 92.0527 101.621 92.5859 102.182C93.1191 102.742 93.5293 103.453 93.8164 104.328C94.1035 105.203 94.3223 106.078 94.4727 106.967C94.623 107.855 94.6914 108.689 94.6914 109.469C94.6914 111 94.418 112.162 93.8711 112.941C93.3242 113.721 92.6543 114.117 91.875 114.117L91.9023 114.131ZM98.998 114.5H106.586V114.309C105.602 113.967 104.973 113.625 104.699 113.283C104.426 112.941 104.289 112.244 104.289 111.191V104.219C104.713 103.33 105.273 102.879 105.971 102.879C106.777 102.879 107.693 103.508 108.719 104.779H108.91L109.307 101.061C108.938 100.814 108.486 100.691 107.967 100.691C107.023 100.691 106.23 100.979 105.574 101.553C104.918 102.127 104.453 102.77 104.193 103.48H104.111L104.193 100.65C102.553 101.143 100.83 101.457 99.0117 101.607V101.771C99.8184 102.113 100.338 102.496 100.557 102.934C100.775 103.371 100.885 104.164 100.885 105.299V111.205C100.885 112.258 100.775 112.955 100.543 113.297C100.311 113.639 99.791 113.98 98.9844 114.322L98.998 114.5ZM122.158 109.77C121.352 111.479 120.039 112.34 118.207 112.34C116.771 112.34 115.568 111.861 114.584 110.891C113.6 109.92 113.107 108.457 113.107 106.502L113.135 106.174H122.254V105.832C122.254 105.586 122.213 105.285 122.131 104.93C122.049 104.574 121.885 104.137 121.625 103.631C121.365 103.125 121.051 102.66 120.668 102.236C120.285 101.812 119.752 101.457 119.055 101.156C118.357 100.855 117.578 100.705 116.703 100.705C114.775 100.705 113.176 101.361 111.904 102.674C110.633 103.986 109.99 105.695 109.99 107.787C109.99 109.879 110.633 111.574 111.918 112.859C113.203 114.145 114.816 114.787 116.758 114.787C117.729 114.787 118.576 114.623 119.301 114.281C120.025 113.939 120.586 113.488 120.982 112.914C121.379 112.34 121.68 111.82 121.885 111.342C122.09 110.863 122.24 110.385 122.336 109.906L122.158 109.77ZM116.129 101.457C116.648 101.457 117.113 101.621 117.51 101.936C117.906 102.25 118.207 102.646 118.412 103.125C118.617 103.604 118.768 104.041 118.863 104.438C118.959 104.834 119.014 105.203 119.027 105.545L113.121 105.6C113.271 104.287 113.6 103.275 114.119 102.551C114.639 101.826 115.295 101.471 116.102 101.471L116.129 101.457Z" fill="white"/>
</svg>
