<?xml version="1.0" encoding="utf-8"?>
<!-- Generator: Adobe Illustrator 26.0.2, SVG Export Plug-In . SVG Version: 6.00 Build 0)  -->
<svg version="1.1" id="Layer_1" xmlns="http://www.w3.org/2000/svg" xmlns:xlink="http://www.w3.org/1999/xlink" x="0px" y="0px"
	 viewBox="0 0 315 110" style="enable-background:new 0 0 315 110;" xml:space="preserve">
<style type="text/css">
	.st0{fill:#E9DFFA;}
	.st1{display:none;}
	.st2{font-family:'AlbraSemi';}
	.st3{font-size:26px;}
</style>
<path class="st0" d="M55,0h205c30.4,0,55,24.6,55,55l0,0c0,30.4-24.6,55-55,55H55C24.6,110,0,85.4,0,55l0,0C0,24.6,24.6,0,55,0z"/>
<path class="st1" d="M65.5,60.3l-6.8-18c-0.8,0.6-2,1.2-3.4,1.8l0.9,1.8l-4.1,11.3c-0.6,1.6-1.1,2.8-1.6,3.5s-1.2,1.4-2.2,2.1V63
	h5.9v-0.2c-0.8-0.4-1.4-0.7-1.8-1C52.2,61.5,52,61,52,60.5c0-0.6,0.3-1.8,1-3.5l0.3-0.8H60l1.2,3.3c0.3,0.8,0.4,1.3,0.4,1.6
	c0,0.3-0.2,0.6-0.5,0.9c-0.3,0.2-0.9,0.5-1.7,0.9V63H68v-0.2c-0.8-0.4-1.4-0.7-1.6-1C66.1,61.5,65.8,61,65.5,60.3L65.5,60.3z
	 M53.7,55l2.9-8.1l2.9,8.1H53.7z M77.5,49.2c-1.7,0-3.1,0.8-4.3,2.5l-0.1,0l0-2.5c-1.7,0.5-3.4,0.8-5.2,1v0.2
	c0.8,0.2,1.2,0.4,1.5,0.6c0.2,0.2,0.4,0.6,0.4,1.1v13.3c0,1.1-0.1,1.8-0.3,2.1c-0.2,0.3-0.7,0.7-1.5,1v0.2h7.8v-0.2
	c-1.1-0.3-1.8-0.7-2.1-1c-0.3-0.3-0.5-1-0.5-2.1v-3.7h0.1c1.2,1.1,2.5,1.6,3.9,1.6c1.5,0,2.9-0.7,4-2c1.1-1.3,1.7-3.1,1.7-5.3
	c0-2-0.5-3.7-1.6-4.9C80.4,49.8,79.1,49.2,77.5,49.2L77.5,49.2z M76.9,62.5c-0.9,0-1.6-0.4-2.2-1.3c-0.6-0.9-1.1-1.9-1.4-3v-5.7
	c1-1.3,1.9-2,2.9-2c1.1,0,1.9,0.6,2.5,1.9c0.6,1.2,0.8,2.8,0.8,4.8c0,1.7-0.2,3-0.7,3.9C78.4,62,77.7,62.5,76.9,62.5L76.9,62.5z
	 M92.9,49.2c-1.7,0-3.1,0.8-4.3,2.5l-0.1,0l0-2.5c-1.7,0.5-3.4,0.8-5.2,1v0.2c0.8,0.2,1.2,0.4,1.5,0.6c0.2,0.2,0.4,0.6,0.4,1.1v13.3
	c0,1.1-0.1,1.8-0.3,2.1c-0.2,0.3-0.7,0.7-1.5,1v0.2h7.8v-0.2c-1.1-0.3-1.8-0.7-2.1-1c-0.3-0.3-0.5-1-0.5-2.1v-3.7h0.1
	c1.2,1.1,2.5,1.6,3.9,1.6c1.5,0,2.9-0.7,4-2c1.1-1.3,1.7-3.1,1.7-5.3c0-2-0.5-3.7-1.6-4.9C95.8,49.8,94.5,49.2,92.9,49.2L92.9,49.2z
	 M92.2,62.5c-0.9,0-1.6-0.4-2.2-1.3c-0.6-0.9-1.1-1.9-1.4-3v-5.7c1-1.3,1.9-2,2.9-2c1.1,0,1.9,0.6,2.5,1.9c0.6,1.2,0.8,2.8,0.8,4.8
	c0,1.7-0.2,3-0.7,3.9C93.7,62,93,62.5,92.2,62.5L92.2,62.5z M113.4,43h-7.6v0.2c1.1,0.4,1.7,0.8,1.9,1.1c0.2,0.3,0.4,1.1,0.4,2.2v13
	c0,1.1-0.1,1.9-0.4,2.2c-0.2,0.3-0.9,0.7-2,1.1V63h8.9c3.1,0,5.5-1,7.3-3c1.8-2,2.7-4.5,2.7-7.5c0-2.9-1-5.3-2.9-7
	C120,43.8,117.1,43,113.4,43L113.4,43z M114.8,62.2c-1.9-0.1-2.9-0.5-2.9-1.3V43.7h1.3c4.9,0,7.4,3,7.4,9c0,2.9-0.5,5.1-1.5,6.8
	C118,61.2,116.6,62.1,114.8,62.2L114.8,62.2z M138.5,58.3c-0.8,1.7-2.1,2.6-4,2.6c-1.4,0-2.6-0.5-3.6-1.4c-1-1-1.5-2.4-1.5-4.4
	l0-0.3h9.1v-0.3c0-0.2,0-0.5-0.1-0.9s-0.2-0.8-0.5-1.3c-0.3-0.5-0.6-1-1-1.4c-0.4-0.4-0.9-0.8-1.6-1.1c-0.7-0.3-1.5-0.5-2.4-0.5
	c-1.9,0-3.5,0.7-4.8,2c-1.3,1.3-1.9,3-1.9,5.1c0,2.1,0.6,3.8,1.9,5.1c1.3,1.3,2.9,1.9,4.8,1.9c1,0,1.8-0.2,2.5-0.5
	c0.7-0.3,1.3-0.8,1.7-1.4c0.4-0.6,0.7-1.1,0.9-1.6c0.2-0.5,0.4-1,0.5-1.4L138.5,58.3z M132.4,50c0.5,0,1,0.2,1.4,0.5
	c0.4,0.3,0.7,0.7,0.9,1.2s0.4,0.9,0.5,1.3c0.1,0.4,0.2,0.8,0.2,1.1l-5.9,0.1c0.1-1.3,0.5-2.3,1-3C130.9,50.3,131.6,50,132.4,50
	L132.4,50z M148.7,49.5v0.2c0.6,0.3,1,0.6,1.3,0.8s0.4,0.5,0.4,0.9c0,0.3-0.1,0.6-0.2,0.9c0,0-0.1,0.2-0.2,0.5
	c-0.1,0.3-0.2,0.6-0.4,1c-0.2,0.4-0.3,0.9-0.5,1.4s-0.5,1.2-0.7,1.9c-0.3,0.7-0.6,1.4-0.9,2.1l-2.9-6.9c-0.2-0.5-0.3-0.9-0.3-1.1
	c0-0.3,0.1-0.6,0.4-0.8c0.2-0.2,0.7-0.5,1.3-0.7v-0.2h-7.2v0.2c0.6,0.3,1.1,0.6,1.3,0.9c0.3,0.3,0.5,0.7,0.7,1.1l4.9,11.3h0.9
	l4.4-10.6c0.3-0.7,0.6-1.2,0.9-1.6c0.3-0.3,0.8-0.7,1.6-1.2v-0.2L148.7,49.5z M165.1,58.3c-0.8,1.7-2.1,2.6-4,2.6
	c-1.4,0-2.6-0.5-3.6-1.4c-1-1-1.5-2.4-1.5-4.4l0-0.3h9.1v-0.3c0-0.2,0-0.5-0.1-0.9s-0.2-0.8-0.5-1.3c-0.3-0.5-0.6-1-1-1.4
	c-0.4-0.4-0.9-0.8-1.6-1.1c-0.7-0.3-1.5-0.5-2.4-0.5c-1.9,0-3.5,0.7-4.8,2c-1.3,1.3-1.9,3-1.9,5.1c0,2.1,0.6,3.8,1.9,5.1
	c1.3,1.3,2.9,1.9,4.8,1.9c1,0,1.8-0.2,2.5-0.5c0.7-0.3,1.3-0.8,1.7-1.4c0.4-0.6,0.7-1.1,0.9-1.6s0.4-1,0.5-1.4L165.1,58.3z
	 M159.1,50c0.5,0,1,0.2,1.4,0.5c0.4,0.3,0.7,0.7,0.9,1.2s0.4,0.9,0.5,1.3c0.1,0.4,0.2,0.8,0.2,1.1l-5.9,0.1c0.2-1.3,0.5-2.3,1-3
	C157.6,50.3,158.2,50,159.1,50L159.1,50z M166,63h7.1v-0.2c-0.8-0.3-1.3-0.7-1.5-1c-0.2-0.3-0.3-1-0.3-2.1V42
	c-1.6,0.5-3.3,0.8-5.3,1v0.2c0.8,0.4,1.3,0.8,1.5,1.1c0.2,0.4,0.4,1.2,0.4,2.5v12.9c0,1.1-0.1,1.8-0.3,2.1c-0.2,0.3-0.8,0.7-1.6,1
	L166,63z M180.5,63.3c2.1,0,3.8-0.7,5-2c1.2-1.4,1.9-3.1,1.9-5.1c0-2.1-0.6-3.7-1.9-5c-1.2-1.3-2.9-1.9-4.9-1.9
	c-2.1,0-3.8,0.7-5,2.1c-1.2,1.4-1.9,3.1-1.9,5.1c0,2.1,0.6,3.7,1.9,5C176.9,62.6,178.5,63.3,180.5,63.3L180.5,63.3z M181.1,62.6
	c-0.7,0-1.2-0.3-1.8-0.9c-0.5-0.6-0.9-1.3-1.2-2.1c-0.3-0.9-0.5-1.7-0.7-2.6c-0.2-0.9-0.2-1.7-0.2-2.5c0-1.5,0.3-2.7,0.8-3.4
	c0.5-0.8,1.2-1.2,2-1.2c0.7,0,1.2,0.3,1.8,0.8c0.5,0.6,0.9,1.3,1.2,2.1c0.3,0.9,0.5,1.8,0.7,2.6c0.2,0.9,0.2,1.7,0.2,2.5
	c0,1.5-0.3,2.7-0.8,3.5C182.6,62.2,181.9,62.6,181.1,62.6L181.1,62.6z M197.4,49.2c-1.7,0-3.1,0.8-4.3,2.5l-0.1,0l0-2.5
	c-1.7,0.5-3.4,0.8-5.2,1v0.2c0.8,0.2,1.2,0.4,1.5,0.6c0.2,0.2,0.4,0.6,0.4,1.1v13.3c0,1.1-0.1,1.8-0.3,2.1c-0.2,0.3-0.7,0.7-1.5,1
	v0.2h7.8v-0.2c-1.1-0.3-1.8-0.7-2.1-1c-0.3-0.3-0.5-1-0.5-2.1v-3.7h0.1c1.2,1.1,2.5,1.6,3.9,1.6c1.5,0,2.9-0.7,4-2
	c1.1-1.3,1.7-3.1,1.7-5.3c0-2-0.5-3.7-1.6-4.9C200.2,49.8,198.9,49.2,197.4,49.2L197.4,49.2z M196.7,62.5c-0.9,0-1.6-0.4-2.2-1.3
	c-0.6-0.9-1.1-1.9-1.4-3v-5.7c1-1.3,1.9-2,2.9-2c1.1,0,1.9,0.6,2.5,1.9c0.6,1.2,0.8,2.8,0.8,4.8c0,1.7-0.2,3-0.7,3.9
	C198.2,62,197.5,62.5,196.7,62.5L196.7,62.5z M225.7,59.7v-6.5c0-1.3-0.4-2.3-1.2-3c-0.8-0.6-1.7-1-2.7-1c-1.9,0-3.4,1-4.6,3.1
	c-0.2-1-0.6-1.8-1.4-2.3c-0.7-0.5-1.5-0.8-2.4-0.8c-1.9,0-3.4,1-4.6,3.1v-3.1c-1.7,0.5-3.4,0.8-5.2,1v0.2c0.8,0.4,1.3,0.8,1.5,1.2
	c0.2,0.4,0.4,1.2,0.4,2.4v5.8c0,1.1-0.1,1.8-0.3,2.1c-0.2,0.3-0.8,0.7-1.6,1v0.2h7.1v-0.2c-0.8-0.3-1.3-0.7-1.5-1
	c-0.2-0.3-0.3-1-0.3-2.1v-6.6c0.8-1.4,1.8-2.1,2.8-2.1c0.6,0,1.2,0.2,1.6,0.7c0.4,0.5,0.7,1.2,0.7,2.1c0,3,0,4.9,0,5.8
	c0,1.1-0.1,1.8-0.4,2.1c-0.2,0.3-0.7,0.7-1.6,1v0.2h7.1v-0.2c-0.8-0.3-1.3-0.7-1.5-1c-0.2-0.3-0.3-1-0.3-2.1v-6.6
	c0.8-1.4,1.8-2.1,2.9-2.1c0.7,0,1.2,0.2,1.6,0.7c0.4,0.5,0.7,1.2,0.7,2.1c0,1.2,0,3.2-0.1,5.8c0,1.1-0.1,1.8-0.4,2.1
	c-0.2,0.3-0.8,0.7-1.6,1V63h7.1v-0.2c-0.8-0.3-1.3-0.7-1.5-1C225.8,61.5,225.7,60.8,225.7,59.7L225.7,59.7z M240.3,58.3
	c-0.8,1.7-2.1,2.6-4,2.6c-1.4,0-2.6-0.5-3.6-1.4c-1-1-1.5-2.4-1.5-4.4l0-0.3h9.1v-0.3c0-0.2,0-0.5-0.1-0.9s-0.2-0.8-0.5-1.3
	c-0.3-0.5-0.6-1-1-1.4c-0.4-0.4-0.9-0.8-1.6-1.1c-0.7-0.3-1.5-0.5-2.4-0.5c-1.9,0-3.5,0.7-4.8,2c-1.3,1.3-1.9,3-1.9,5.1
	c0,2.1,0.6,3.8,1.9,5.1c1.3,1.3,2.9,1.9,4.8,1.9c1,0,1.8-0.2,2.5-0.5c0.7-0.3,1.3-0.8,1.7-1.4c0.4-0.6,0.7-1.1,0.9-1.6
	s0.4-1,0.5-1.4L240.3,58.3z M234.3,50c0.5,0,1,0.2,1.4,0.5c0.4,0.3,0.7,0.7,0.9,1.2s0.4,0.9,0.5,1.3c0.1,0.4,0.2,0.8,0.2,1.1
	l-5.9,0.1c0.2-1.3,0.5-2.3,1-3C232.8,50.3,233.4,50,234.3,50L234.3,50z M255.4,59.7v-6.5c0-1.4-0.4-2.4-1.2-3c-0.8-0.7-1.7-1-2.7-1
	c-2,0-3.7,1-5,3.1v-3.1c-1.7,0.5-3.4,0.8-5.2,1v0.2c0.8,0.4,1.3,0.8,1.5,1.2c0.2,0.4,0.4,1.2,0.4,2.4v5.8c0,1.1-0.1,1.8-0.3,2.1
	c-0.2,0.3-0.8,0.7-1.6,1V63h7.1v-0.2c-0.8-0.3-1.3-0.7-1.5-1c-0.2-0.3-0.3-1-0.3-2.1v-6.6c0.5-0.7,1-1.2,1.5-1.6
	c0.5-0.4,1.1-0.5,1.9-0.5c0.8,0,1.3,0.3,1.6,0.9c0.3,0.6,0.5,1.8,0.5,3.7c0,0.3,0,1,0,2.1c0,1.1,0,1.8,0,2c0,1.1-0.1,1.8-0.4,2.1
	c-0.2,0.3-0.7,0.7-1.5,1V63h7.1v-0.2c-0.8-0.3-1.3-0.7-1.5-1C255.6,61.5,255.5,60.8,255.4,59.7L255.4,59.7z M262.5,63.2
	c1.6,0,2.9-0.8,3.9-2.4l-0.1-0.1c-0.6,0.7-1.3,1-2,1c-0.6,0-1.1-0.2-1.5-0.6c-0.4-0.4-0.6-1.1-0.6-2.1l0.1-8.6h3.5l0.1-0.8h-3.7
	v-3.6H262c-0.7,1.2-2.1,2.5-4.4,4v0.4h1.4v9.2c0,1.2,0.3,2.2,1,2.8C260.6,62.9,261.5,63.2,262.5,63.2L262.5,63.2z"/>
<text transform="matrix(1 0 0 1 76.2715 62.7886)" class="st2 st3">Art Direction</text>
</svg>
